<svg width="54" height="54" viewBox="0 0 54 54" fill="none" xmlns="http://www.w3.org/2000/svg">
  <g clip-path="url(#clip0_811_1551)">
    <path fill-rule="evenodd" clip-rule="evenodd" d="M18.9674 24.3462H14.7571C14.4113 24.3462 14.1307 24.0672 14.1307 23.7235V21.9417C13.0136 21.5858 11.978 21.0107 11.0942 20.2557L9.45221 21.1642C9.1572 21.3268 8.78421 21.2287 8.61009 20.9398L6.50493 17.4449C6.41786 17.3005 6.39375 17.1267 6.43697 16.9642C6.48081 16.8017 6.58917 16.6631 6.7373 16.5813L8.35422 15.6871C8.23898 15.141 8.18072 14.5827 8.18072 14.0223C8.18072 13.461 8.23898 12.9027 8.35391 12.3573L6.73762 11.4631C6.58917 11.3812 6.48113 11.243 6.43728 11.0798C6.39344 10.9173 6.41818 10.7436 6.50524 10.5991L8.6104 7.10428C8.7839 6.81598 9.15658 6.71697 9.45253 6.88012L11.0948 7.78924C11.9786 7.03423 13.0139 6.45918 14.1307 6.10331V4.32087C14.1307 3.97715 14.4113 3.69819 14.7571 3.69819L18.9674 3.69788C19.3131 3"></path>
    </g></svg>

