<svg width="54" height="54" viewBox="0 0 54 54" fill="none" xmlns="http://www.w3.org/2000/svg">
  <g clip-path="url(#clip0_811_1551)">
    <path class="svg-elem-1" fill-rule="evenodd" clip-rule="evenodd" d="M18.9674 24.3462H14.7571C14.4113 24.3462 14.1307 24.0672 14.1307 23.7235V21.9417C13.0136 21.5858 11.978 21.0107 11.0942 20.2557L9.45221 21.1642C9.1572 21.3268 8.78421 21.2287 8.61009 20.9398L6.50493 17.4449C6.41786 17.3005 6.39375 17.1267 6.43697 16.9642C6.48081 16.8017 6.58917 16.6631 6.7373 16.5813L8.35422 15.6871C8.23898 15.141 8.18072 14.5827 8.18072 14.0223C8.18072 13.461 8.23898 12.9027 8.35391 12.3573L6.73762 11.4631C6.58917 11.3812 6.48113 11.243 6.43728 11.0798C6.39344 10.9173 6.41818 10.7436 6.50524 10.5991L8.6104 7.10428C8.7839 6.81598 9.15658 6.71697 9.45253 6.88012L11.0948 7.78924C11.9786 7.03423 13.0139 6.45918 14.1307 6.10331V4.32087C14.1307 3.97715 14.4113 3.69819 14.7571 3.69819L18.9674 3.69788C19.3131 3.69788 19.5938 3.97684 19.5938 4.32056V6.103C20.7112 6.45918 21.7465 7.03392 22.6297 7.78893L24.272 6.88043C24.5673 6.71759 24.9406 6.81629 25.1141 7.10491L27.2196 10.5997C27.3066 10.7442 27.331 10.9179 27.2869 11.0804C27.243 11.243 27.1341 11.3815 26.9866 11.4634L25.3696 12.3576C25.4849 12.9037 25.5428 13.4619 25.5428 14.0226C25.5428 14.5837 25.4846 15.1413 25.3696 15.6874L26.9866 16.5816C27.1344 16.6635 27.2434 16.8017 27.2869 16.9645C27.3304 17.1277 27.3066 17.3008 27.2196 17.4452L25.1144 20.9401C24.9409 21.2284 24.5673 21.3271 24.2723 21.1642L22.6309 20.256C21.7471 21.0111 20.7115 21.5861 19.5938 21.9426V23.7235C19.5934 24.0672 19.3131 24.3458 18.9671 24.3458L18.9674 24.3462ZM15.3834 23.1011H18.3411V21.4753C18.3411 21.1923 18.5337 20.9438 18.8096 20.8725C20.0519 20.5509 21.1931 19.9192 22.1095 19.0452C22.3083 18.8559 22.6074 18.8183 22.8476 18.9506L24.3515 19.7825L25.8131 17.3568L24.3456 16.5451C24.0931 16.4054 23.9697 16.1127 24.0465 15.8362C24.2093 15.2468 24.2914 14.6366 24.2914 14.0223C24.2914 13.4074 24.2093 12.7972 24.0465 12.2078C23.9697 11.931 24.0938 11.6387 24.3456 11.4992L25.8131 10.6875L24.3515 8.26155L22.8464 9.09408C22.6056 9.22671 22.3068 9.18841 22.1082 8.99943C21.1916 8.12549 20.0507 7.49408 18.8096 7.17247C18.534 7.10086 18.3411 6.85334 18.3411 6.56971V4.94263L15.3834 4.94231V6.56939C15.3834 6.85241 15.1908 7.10086 14.9149 7.17216C13.6738 7.49346 12.5326 8.12518 11.6163 8.99912C11.418 9.18841 11.1186 9.22671 10.8781 9.09377L9.37361 8.26155L7.91202 10.6872L9.37956 11.4989C9.63198 11.6387 9.75537 11.9313 9.67895 12.2081C9.5161 12.7972 9.43374 13.4074 9.43374 14.0226C9.43374 14.6366 9.51641 15.2472 9.67895 15.8365C9.75537 16.1133 9.63166 16.4063 9.37956 16.5458L7.91202 17.3574L9.37361 19.7831L10.8781 18.9506C11.1177 18.8173 11.4174 18.8559 11.6163 19.0452C12.5332 19.9192 13.6738 20.5509 14.9155 20.8725C15.1911 20.9438 15.3841 21.1916 15.3841 21.4753V23.1014H15.3834V23.1011Z" fill="url(#paint0_linear_811_1551)"></path>
    <path class="svg-elem-2" fill-rule="evenodd" clip-rule="evenodd" d="M16.8626 17.8581C14.6682 17.8581 12.8828 16.137 12.8828 14.0217C12.8828 11.9065 14.6679 10.1854 16.8626 10.1854C19.0574 10.1854 20.8425 11.9065 20.8425 14.0217C20.8425 16.137 19.0571 17.8581 16.8626 17.8581ZM16.8626 11.4307C15.3588 11.4307 14.1355 12.593 14.1355 14.0217C14.1355 15.4505 15.3591 16.6127 16.8626 16.6127C18.3662 16.6127 19.5898 15.4505 19.5898 14.0217C19.5898 12.593 18.3662 11.4307 16.8626 11.4307Z" fill="url(#paint1_linear_811_1551)"></path>
  </g>
  <defs>
    <linearGradient id="paint0_linear_811_1551" x1="0" y1="0" x2="0" y2="1" gradientUnits="userSpaceOnUse">
      <stop offset="0%" stop-color="#FF9F00"></stop>
      <stop offset="100%" stop-color="#FF6F00"></stop>
    </linearGradient>
    <linearGradient id="paint1_linear_811_1551" x1="0" y1="0" x2="0" y2="1" gradientUnits="userSpaceOnUse">
      <stop offset="0%" stop-color="#00C2FF"></stop>
      <stop offset="100%" stop-color="#0093D0"></stop>
    </linearGradient>
    <clipPath id="clip0_811_1551">
      <rect width="54" height="54" fill="white"></rect>
    </clipPath>
  </defs>
</svg>
