<svg width="54" height="54" viewBox="0 0 54 54" fill="none" xmlns="http://www.w3.org/2000/svg">
<g clip-path="url(#clip0_811_1551)">
<path fill-rule="evenodd" class="animate-svg-fill-1" clip-rule="evenodd" d="M18.9674 24.3462H14.7571C14.4113 24.3462 14.1307 24.0672 14.1307 23.7235V21.9417C13.0136 21.5858 11.978 21.0107 11.0942 20.2557L9.45221 21.1642C9.1572 21.3268 8.78421 21.2287 8.61009 20.9398L6.50493 17.4449C6.41786 17.3005 6.39375 17.1267 6.43697 16.9642C6.48081 16.8017 6.58917 16.6631 6.7373 16.5813L8.35422 15.6871C8.23898 15.141 8.18072 14.5827 8.18072 14.0223C8.18072 13.461 8.23898 12.9027 8.35391 12.3573L6.73762 11.4631C6.58917 11.3812 6.48113 11.243 6.43728 11.0798C6.39344 10.9173 6.41818 10.7436 6.50524 10.5991L8.6104 7.10428C8.7839 6.81598 9.15658 6.71697 9.45253 6.88012L11.0948 7.78924C11.9786 7.03423 13.0139 6.45918 14.1307 6.10331V4.32087C14.1307 3.97715 14.4113 3.69819 14.7571 3.69819L18.9674 3.69788C19.3131 3.69788 19.5938 3.97684 19.5938 4.32056V6.103C20.7112 6.45918 21.7465 7.03392 22.6297 7.78893L24.272 6.88043C24.5673 6.71759 24.9406 6.81629 25.1141 7.10491L27.2196 10.5997C27.3066 10.7442 27.331 10.9179 27.2869 11.0804C27.243 11.243 27.1341 11.3815 26.9866 11.4634L25.3696 12.3576C25.4849 12.9037 25.5428 13.4619 25.5428 14.0226C25.5428 14.5837 25.4846 15.1413 25.3696 15.6874L26.9866 16.5816C27.1344 16.6635 27.2434 16.8017 27.2869 16.9645C27.3304 17.1277 27.3066 17.3008 27.2196 17.4452L25.1144 20.9401C24.9409 21.2284 24.5673 21.3271 24.2723 21.1642L22.6309 20.256C21.7471 21.0111 20.7115 21.5861 19.5938 21.9426V23.7235C19.5934 24.0672 19.3131 24.3458 18.9671 24.3458L18.9674 24.3462ZM15.3834 23.1011H18.3411V21.4753C18.3411 21.1923 18.5337 20.9438 18.8096 20.8725C20.0519 20.5509 21.1931 19.9192 22.1095 19.0452C22.3083 18.8559 22.6074 18.8183 22.8476 18.9506L24.3515 19.7825L25.8131 17.3568L24.3456 16.5451C24.0931 16.4054 23.9697 16.1127 24.0465 15.8362C24.2093 15.2468 24.2914 14.6366 24.2914 14.0223C24.2914 13.4074 24.2093 12.7972 24.0465 12.2078C23.9697 11.931 24.0938 11.6387 24.3456 11.4992L25.8131 10.6875L24.3515 8.26155L22.8464 9.09408C22.6056 9.22671 22.3068 9.18841 22.1082 8.99943C21.1916 8.12549 20.0507 7.49408 18.8096 7.17247C18.534 7.10086 18.3411 6.85334 18.3411 6.56971V4.94263L15.3834 4.94231V6.56939C15.3834 6.85241 15.1908 7.10086 14.9149 7.17216C13.6738 7.49346 12.5326 8.12518 11.6163 8.99912C11.418 9.18841 11.1186 9.22671 10.8781 9.09377L9.37361 8.26155L7.91202 10.6872L9.37956 11.4989C9.63198 11.6387 9.75537 11.9313 9.67895 12.2081C9.5161 12.7972 9.43374 13.4074 9.43374 14.0226C9.43374 14.6366 9.51641 15.2472 9.67895 15.8365C9.75537 16.1133 9.63166 16.4063 9.37956 16.5458L7.91202 17.3574L9.37361 19.7831L10.8781 18.9506C11.1177 18.8173 11.4174 18.8559 11.6163 19.0452C12.5332 19.9192 13.6738 20.5509 14.9155 20.8725C15.1911 20.9438 15.3841 21.1916 15.3841 21.4753V23.1014H15.3834V23.1011Z" fill="url(#paint0_linear_811_1551)" class="svg-elem-1"></path>
<path fill-rule="evenodd" class="animate-svg-fill-2" clip-rule="evenodd" d="M16.8626 17.8581C14.6682 17.8581 12.8828 16.137 12.8828 14.0217C12.8828 11.9065 14.6679 10.1854 16.8626 10.1854C19.0574 10.1854 20.8425 11.9065 20.8425 14.0217C20.8425 16.137 19.0571 17.8581 16.8626 17.8581ZM16.8626 11.4307C15.3588 11.4307 14.1355 12.593 14.1355 14.0217C14.1355 15.4505 15.3591 16.6127 16.8626 16.6127C18.3662 16.6127 19.5898 15.4505 19.5898 14.0217C19.5898 12.593 18.3662 11.4307 16.8626 11.4307Z" fill="url(#paint1_linear_811_1551)" class="svg-elem-2"></path>
<path fill-rule="evenodd" class="animate-svg-fill-3" clip-rule="evenodd" d="M52.8224 47.5363H3.4369C3.09115 47.5363 2.81055 47.257 2.81055 46.9136V7.81171C2.81055 7.46799 3.09115 7.18903 3.4369 7.18903C3.78264 7.18903 4.06325 7.46799 4.06325 7.81171V46.2903H52.8227C53.1684 46.2903 53.449 46.5696 53.449 46.913C53.449 47.2564 53.1684 47.5363 52.8227 47.5363H52.8224Z" fill="#14142A" class="svg-elem-3"></path>
<path fill-rule="evenodd" class="animate-svg-fill-4" clip-rule="evenodd" d="M48.9769 47.5362C48.6311 47.5362 48.3505 47.257 48.3505 46.9136V24.2761C48.3505 23.971 48.1012 23.7232 47.7943 23.7232H43.6542C43.3469 23.7232 43.098 23.9716 43.098 24.2761V46.9136C43.098 47.2573 42.817 47.5362 42.4716 47.5362C42.1262 47.5362 41.8453 47.257 41.8453 46.9136V24.2761C41.8453 23.2845 42.657 22.4778 43.6548 22.4778H47.7949C48.793 22.4778 49.6045 23.2845 49.6045 24.2761V46.9136C49.6038 47.2573 49.3232 47.5362 48.9772 47.5362H48.9769ZM38.0352 47.5362C37.6894 47.5362 37.4088 47.257 37.4088 46.9136V30.1558C37.4088 29.856 37.1542 29.6029 36.8529 29.6029H32.7121C32.4055 29.6029 32.1563 29.8507 32.1563 30.1558V46.9136C32.1563 47.2573 31.8753 47.5362 31.5299 47.5362C31.1845 47.5362 30.9036 47.257 30.9036 46.9136V30.1558C30.9036 29.1639 31.7153 28.3569 32.7125 28.3569H36.8532C37.8507 28.3569 38.6621 29.1636 38.6621 30.1558V46.9136C38.6615 47.2573 38.3809 47.5362 38.0352 47.5362ZM27.0938 47.5362C26.748 47.5362 26.4674 47.257 26.4674 46.9136V33.6833C26.4674 33.3835 26.2125 33.1304 25.9106 33.1304H21.7704C21.4635 33.1304 21.2136 33.3782 21.2136 33.6833V46.9136C21.2136 47.2573 20.933 47.5362 20.5873 47.5362C20.2415 47.5362 19.9609 47.257 19.9609 46.9136V33.6833C19.9609 32.6914 20.7724 31.8844 21.7704 31.8844H25.9106C26.9081 31.8844 27.7201 32.6914 27.7201 33.6833V46.9136C27.7201 47.2573 27.4395 47.5362 27.0938 47.5362ZM16.1515 47.5362C15.8057 47.5362 15.5251 47.257 15.5251 46.9136V37.2112C15.5251 36.9113 15.2702 36.6582 14.9689 36.6582H10.8284C10.5215 36.6582 10.2722 36.9061 10.2722 37.2112V46.9136C10.2722 47.2573 9.99163 47.5362 9.64588 47.5362C9.30014 47.5362 9.01953 47.257 9.01953 46.9136V37.2112C9.01953 36.2192 9.83097 35.4122 10.8284 35.4122H14.9689C15.9664 35.4122 16.7778 36.2189 16.7778 37.2112V46.9136C16.7778 47.2573 16.4972 47.5362 16.1515 47.5362Z" fill="#14142A" class="svg-elem-4"></path>
<path fill-rule="evenodd" class="animate-svg-fill-5" clip-rule="evenodd" d="M9.14481 34.6207C8.92809 34.6207 8.71764 34.5087 8.60145 34.3088C8.42889 34.0111 8.53099 33.6304 8.83069 33.4582L45.0418 12.6738C45.3397 12.5023 45.7239 12.6035 45.8971 12.9017C46.0697 13.1997 45.9676 13.5805 45.6682 13.752L9.45736 34.5373C9.35871 34.5937 9.25129 34.6207 9.14481 34.6207Z" fill="#14142A" class="svg-elem-5"></path>
<path fill-rule="evenodd" class="animate-svg-fill-6" clip-rule="evenodd" d="M40.5287 20.4688C40.4013 20.4688 40.2729 20.4305 40.162 20.3508C39.8814 20.1493 39.8188 19.7602 40.0214 19.4812L44.0288 13.9763L37.2294 14.6738C36.8915 14.7049 36.578 14.4608 36.5423 14.118C36.5073 13.7758 36.7572 13.4698 37.1014 13.4343L45.2924 12.594C45.5336 12.5697 45.7754 12.6896 45.8991 12.9019C46.0225 13.1145 46.0087 13.3792 45.8643 13.5781L41.0367 20.2107C40.9139 20.3797 40.7232 20.4688 40.5287 20.4688Z" fill="#14142A" class="svg-elem-6"></path>
<path fill-rule="evenodd" class="animate-svg-fill-7" clip-rule="evenodd" d="M44.0978 51.0647C43.7521 51.0647 43.4715 50.7855 43.4715 50.442V47.6493C43.4715 47.3056 43.7524 47.0266 44.0978 47.0266C44.4432 47.0266 44.7242 47.3059 44.7242 47.6493V50.442C44.7245 50.7855 44.4436 51.0647 44.0978 51.0647ZM36.1131 51.0647C35.7674 51.0647 35.4868 50.7855 35.4868 50.442V47.6493C35.4868 47.3056 35.7677 47.0266 36.1131 47.0266C36.4585 47.0266 36.7395 47.3059 36.7395 47.6493V50.442C36.7395 50.7855 36.4589 51.0647 36.1131 51.0647ZM28.1278 51.0647C27.782 51.0647 27.5014 50.7855 27.5014 50.442V47.6493C27.5014 47.3056 27.7824 47.0266 28.1278 47.0266C28.4732 47.0266 28.7541 47.3059 28.7541 47.6493V50.442C28.7548 50.7855 28.4738 51.0647 28.1278 51.0647ZM20.1434 51.0647C19.7977 51.0647 19.517 50.7855 19.517 50.442V47.6493C19.517 47.3056 19.7977 47.0266 20.1434 47.0266C20.4891 47.0266 20.7697 47.3059 20.7697 47.6493V50.442C20.7697 50.7855 20.4891 51.0647 20.1434 51.0647ZM12.1587 51.0647C11.813 51.0647 11.5323 50.7855 11.5323 50.442V47.6493C11.5323 47.3056 11.813 47.0266 12.1587 47.0266C12.5044 47.0266 12.785 47.3059 12.785 47.6493V50.442C12.785 50.7855 12.5051 51.0647 12.1587 51.0647ZM3.43553 43.8615H0.626349C0.280605 43.8615 0 43.5822 0 43.2388C0 42.8954 0.280605 42.6161 0.626349 42.6161H3.43553C3.78127 42.6161 4.06188 42.8954 4.06188 43.2388C4.06188 43.5822 3.78158 43.8615 3.43553 43.8615ZM3.43553 35.9238H0.626349C0.280605 35.9238 0 35.6445 0 35.3011C0 34.9577 0.280605 34.6784 0.626349 34.6784H3.43553C3.78127 34.6784 4.06188 34.9577 4.06188 35.3011C4.06188 35.6445 3.78158 35.9238 3.43553 35.9238ZM3.43553 27.9849H0.626349C0.280605 27.9849 0 27.7059 0 27.3622C0 27.0184 0.280605 26.7395 0.626349 26.7395H3.43553C3.78127 26.7395 4.06188 27.0184 4.06188 27.3622C4.06188 27.7059 3.78158 27.9849 3.43553 27.9849ZM3.43553 20.0472H0.626349C0.280605 20.0472 0 19.7682 0 19.4245C0 19.0807 0.280605 18.8018 0.626349 18.8018H3.43553C3.78127 18.8018 4.06188 19.0807 4.06188 19.4245C4.06188 19.7682 3.78158 20.0472 3.43553 20.0472ZM3.43553 12.1088H0.626349C0.280605 12.1088 0 11.8299 0 11.4862C0 11.1424 0.280605 10.8635 0.626349 10.8635H3.43553C3.78127 10.8635 4.06188 11.1424 4.06188 11.4862C4.06188 11.8299 3.78158 12.1088 3.43553 12.1088Z" fill="#14142A" class="svg-elem-7"></path>
<path fill-rule="evenodd" class="animate-svg-fill-8" clip-rule="evenodd" d="M48.3516 46.2902V24.2761C48.3516 23.971 48.1024 23.7231 47.7954 23.7231H46.72C46.7767 23.8975 46.8077 24.0834 46.8077 24.2761V46.2902H48.352H48.3516ZM37.4099 46.2902V30.1555C37.4099 29.8557 37.1553 29.6026 36.8541 29.6026H35.8027C35.8594 29.7769 35.8904 29.9628 35.8904 30.1558V46.2902H37.4099Z" fill="#DADADA" class="svg-elem-8"></path>
</g>
<defs>
<linearGradient id="paint0_linear_811_1551" x1="6.41602" y1="14.022" x2="27.3084" y2="14.022" gradientUnits="userSpaceOnUse">
<stop stop-color="#393185"></stop>
<stop offset="1" stop-color="#E4097F"></stop>
</linearGradient>
<linearGradient id="paint1_linear_811_1551" x1="12.8828" y1="14.0217" x2="20.8425" y2="14.0217" gradientUnits="userSpaceOnUse">
<stop stop-color="#393185"></stop>
<stop offset="1" stop-color="#E4097F"></stop>
</linearGradient>
<clipPath id="clip0_811_1551">
<rect width="53.4483" height="53.1357" fill="white" transform="translate(0 0.812988)" class="svg-elem-9"></rect>
</clipPath>
</defs>
</svg>
