<svg width="54" height="54" viewBox="0 0 54 54" fill="none" xmlns="http://www.w3.org/2000/svg">
  <g clip-path="url(#clip0_811_1551)">
    <path fill-rule="evenodd" clip-rule="evenodd" d="M18.9674 24.3462H14.7571C14.4113 24.3462 14.1307 24.0672 14.1307 23.7235V21.9417C13.0136 21.5858 11.978 21.0107 11.0942 20.2557L9.45221 21.1642C9.1572 21.3268 8.78421 21.2287 8.61009 20.9398L6.50493 17.4449C6.41786 17.3005 6.39375 17.1267 6.43697 16.9642C6.48081 16.8017 6.58917 16.6631 6.7373 16.5813L8.35422 15.6871C8.23898 15.141 8.18072 14.5827 8.18072 14.0223C8.18072 13.461 8.23898 12.9027 8.35391 12.3573L6.73762 11.4631C6.58917 11.3812 6.48113 11.243 6.43728 11.0798C6.39344 10.9173 6.41818 10.7436 6.50524 10.5991L8.6104 7.10428C8.7839 6.81598 9.15658 6.71697 9.45253 6.88012L11.0948 7.78924C11.9786 7.03423 13.0139 6.45918 14.1307 6.10331V4.32087C14.1307 3.97715 14.4113 3.69819 14.7571 3.69819L18.9674 3.69788C19.3131 3.69788 19.5938 3.97684 19.5938 4.32056V6.103C20.7112 6.45918 21.7465 7.03392 22.6297 7.78893L24.272 6.88043C24.5673 6.71759 24.9406 6.81629 25.1141 7.10491L27.2196 10.5997C27.3066 10.7442 27.331 10.9179 27.2869 11.0804C27.243 11.243 27.1341 11.3815 26.9866 11.4634L25.3696 12.3576C25.4849 12.9037 25.5428 13.4619 25.5428 14.0226C25.5428 14.5837 25.4846 15.1413 25.3696 15.6874L26.9866 16.5816C27.1344 16.6635 27.2434 16.8017 27.2869 16.9645C27.3304 17.1277 27.3066 17.3008 27.2196 17.4452L25.1144 20.9401C24.9409 21.2284 24.5673 21.3271 24.2723 21.1642L22.6309 20.256C21.7471 21.0111 20.7115 21.5861 19.5938 21.9426V23.7235C19.5934 24.0672 19.3131 24.3458 18.9671 24.3458L18.9674 24.3462ZM15.3834 23.1011H18.3411V21.4753C18.3411 21.1923 18.5337 20.9438 18.8096 20.8725C20.0519 20.5509 21.1931 19.9192 22.1095 19.0452C22.3083 18.8559 22.6074 18.8183 22.8476 18.9506L24.3515 19.7825L25.8131 17.3568L24.3456 16.5451C24.0931 16.4054 23.9697 16.1127 24.0465 15.8362C24.2093 15.2468 24.2914 14.6366 24.2914 14.0223C24.2914 13.4074 24.2093 12.7972 24.0465 12.2078C23.9697 11.931 24.0938 11.6387 24.3456 11.4992L25.8131 10.6875L24.3515 8.26155L22.8464 9.09408C22.6056 9.22671 22.3068 9.18841 22.1082 8.99943C21.1916 8.12549 20.0507 7.49408 18.8096 7.17247C18.534 7.10086 18.3411 6.85334 18.3411 6.56971V4.94263L15.3834 4.94231V6.56939C15.3834 6.85241 15.1908 7.10086 14.9149 7.17216C13.6738 7.49346 12.5326 8.12518 11.6163 8.99912C11.418 9.18841 11.1186 9.22671 10.8781 9.09377L9.37361 8.26155L7.91202 10.6872L9.37956 11.4989C9.63198 11.6387 9.75537 11.9313 9.67895 12.2081C9.5161 12.7972 9.43374 13.4074 9.43374 14.0226C9.43374 14.6366 9.51641 15.2472 9.67895 15.8365C9.75537 16.1133 9.63166 16.4063 9.37956 16.5458L7.91202 17.3574L9.37361 19.7831L10.8781 18.9506C11.1177 18.8173 11.4174 18.8559 11.6163 19.0452C12.5332 19.9192 13.6738 20.5509 14.9155 20.8725C15.1911 20.9438 15.3841 21.1916 15.3841 21.4753V23.1014H15.3834V23.1011Z" fill="url(#paint0_linear_811_1551)"/>
    <path fill-rule="evenodd" clip-rule="evenodd" d="M16.8626 17.8581C14.6682 17.8581 12.8828 16.137 12.8828 14.0217C12.8828 11.9065 14.6679 10.1854 16.8626 10.1854C19.0574 10.1854 20.8425 11.9065 20.8425 14.0217C20.8425 16.137 19.0571 17.8581 16.8626 17.8581ZM16.8626 11.4307C15.3588 11.4307 14.1355 12.593 14.1355 14.0217C14.1355 15.4505 15.3591 16.6127 16.8626 16.6127C18.3662 16.6127 19.5898 15.4505 19.5898 14.0217C19.5898 12.593 18.3662 11.4307 16.8626 11.4307Z" fill="url(#paint1_linear_811_1551)"/>
    <path d="M43.9181 30.8451H37.5635C37.025 30.8451 36.5852 31.2861 36.5852 31.8233C36.5852 32.3604 37.0259 32.8014 37.5635 32.8014H43.9181C44.4566 32.8014 44.8964 32.3604 44.8964 31.8233C44.8964 31.2861 44.4554 30.8451 43.9181 30.8451Z" fill="url(#paint2_linear_811_1551)"/>
    <path d="M38.9953 35.5366H43.9177C44.4562 35.5366 44.896 35.9776 44.896 36.5147C44.896 37.0519 44.4562 37.4928 43.9177 37.4928H38.9953C38.4577 37.4928 38.0179 37.0519 38.0179 36.5147C38.0179 35.9776 38.4577 35.5366 38.9953 35.5366Z" fill="url(#paint3_linear_811_1551)"/>
    <path d="M44.8964 41.2064C44.8964 40.6692 44.4566 40.2283 43.9181 40.2283H37.5635C37.0259 40.2283 36.5861 40.6692 36.5861 41.2064C36.5861 41.7436 37.025 42.1845 37.5635 42.1845H43.9181C44.4566 42.1845 44.8964 41.7436 44.8964 41.2064Z" fill="url(#paint4_linear_811_1551)"/>
    <path fill-rule="evenodd" clip-rule="evenodd" d="M41.8671 21.8402C41.5884 21.562 41.1247 21.562 40.8459 21.8402L35.8772 26.8046L33.0604 23.9855C32.7816 23.7073 32.318 23.7073 32.0392 23.9855C31.7604 24.2637 31.7604 24.7272 32.0392 25.0054L35.3203 28.2843C35.599 28.5625 36.0627 28.5625 36.3414 28.2843L41.8671 22.7558C42.1459 22.4776 42.1459 22.0141 41.8671 21.7359Z" fill="url(#paint5_linear_811_1551)"/>
    <path fill-rule="evenodd" clip-rule="evenodd" d="M28.217 34.5328C28.217 35.0735 28.6575 35.5152 29.1983 35.5152H35.552C36.0905 35.5152 36.5313 35.0735 36.5313 34.5328C36.5313 33.991 36.0905 33.5502 35.552 33.5502H29.1983C28.6575 33.5502 28.217 33.991 28.217 34.5328Z" fill="url(#paint6_linear_811_1551)"/>
    <path fill-rule="evenodd" clip-rule="evenodd" d="M34.5317 39.2244C34.5317 39.7652 34.0902 40.206 33.5516 40.206H29.1979C28.6583 40.206 28.2178 39.7652 28.2178 39.2244C28.2178 38.6837 28.6583 38.242 29.1979 38.242H33.5516C34.0902 38.242 34.5317 38.6837 34.5317 39.2244Z" fill="url(#paint7_linear_811_1551)"/>
    <path fill-rule="evenodd" clip-rule="evenodd" d="M29.1979 42.9019C28.6583 42.9019 28.2178 43.3436 28.2178 43.8843C28.2178 44.4251 28.6583 44.8668 29.1979 44.8668H33.5516C34.0902 44.8668 34.5317 44.4251 34.5317 43.8843C34.5317 43.3436 34.0902 42.9019 33.5516 42.9019H29.1979Z" fill="url(#paint8_linear_811_1551)"/>
    <path fill-rule="evenodd" clip-rule="evenodd" d="M49.5761 37.4966C51.2942 37.4966 52.6897 36.1035 52.6897 34.3862C52.6897 32.669 51.2942 31.2758 49.5761 31.2758C47.8581 31.2758 46.4616 32.669 46.4616 34.3862C46.4616 36.1035 47.8581 37.4966 49.5761 37.4966ZM49.5761 38.4965C51.8847 38.4965 53.6896 36.6938 53.6896 34.3862C53.6896 32.0785 51.8847 30.2758 49.5761 30.2758C47.2675 30.2758 45.4616 32.0785 45.4616 34.3862C45.4616 36.6938 47.2675 38.4965 49.5761 38.4965Z" fill="url(#paint9_linear_811_1551)"/>
    <path fill-rule="evenodd" clip-rule="evenodd" d="M49.5753 29.0336C48.6145 29.0336 47.6866 29.4288 47.0111 30.1475C46.9134 30.252 46.742 30.2513 46.6374 30.1535C46.5329 30.0557 46.5335 29.8843 46.6313 29.7798C47.3833 28.9607 48.4558 28.4951 49.5753 28.4951C50.6948 28.4951 51.7673 28.9607 52.5193 29.7798C52.6171 29.8843 52.6177 30.0557 52.5131 30.1535C52.4086 30.2513 52.2372 30.252 52.1326 30.1475C51.457 29.4288 50.5292 29.0336 49.5753 29.0336Z" fill="url(#paint10_linear_811_1551)"/>
    <path fill-rule="evenodd" clip-rule="evenodd" d="M49.5763 39.7396C50.5371 39.7396 51.465 39.3444 52.1405 38.6257C52.2382 38.5212 52.4096 38.522 52.5142 38.6198C52.6187 38.7176 52.6181 38.889 52.5203 38.9935C51.7682 39.8125 50.6958 40.2782 49.5763 40.2782C48.4568 40.2782 47.3843 39.8125 46.6323 38.9935C46.5345 38.889 46.5338 38.7176 46.6384 38.6198C46.7429 38.522 46.9143 38.5212 47.0189 38.6257C47.6944 39.3444 48.6222 39.7396 49.5763 39.7396Z" fill="url(#paint11_linear_811_1551)"/>
  </g>
  <defs>
    <linearGradient id="paint0_linear_811_1551" x1="29.7418" y1="24.9308" x2="29.7418" y2="44.9308" gradientUnits="userSpaceOnUse">
      <stop stop-color="#36E2D9"/>
      <stop offset="1" stop-color="#36E2D9" stop-opacity="0"/>
    </linearGradient>
    <linearGradient id="paint1_linear_811_1551" x1="43.224" y1="24.9004" x2="43.224" y2="44.9004" gradientUnits="userSpaceOnUse">
      <stop stop-color="#36E2D9"/>
      <stop offset="1" stop-color="#36E2D9" stop-opacity="0"/>
    </linearGradient>
    <linearGradient id="paint2_linear_811_1551" x1="29.7418" y1="24.9308" x2="29.7418" y2="44.9308" gradientUnits="userSpaceOnUse">
      <stop stop-color="#36E2D9"/>
      <stop offset="1" stop-color="#36E2D9" stop-opacity="0"/>
    </linearGradient>
    <linearGradient id="paint3_linear_811_1551" x1="29.7418" y1="24.9308" x2="29.7418" y2="44.9308" gradientUnits="userSpaceOnUse">
      <stop stop-color="#36E2D9"/>
      <stop offset="1" stop-color="#36E2D9" stop-opacity="0"/>
    </linearGradient>
    <linearGradient id="paint4_linear_811_1551" x1="29.7418" y1="24.9308" x2="29.7418" y2="44.9308" gradientUnits="userSpaceOnUse">
      <stop stop-color="#36E2D9"/>
      <stop offset="1" stop-color="#36E2D9" stop-opacity="0"/>
    </linearGradient>
    <linearGradient id="paint5_linear_811_1551" x1="29.7418" y1="24.9308" x2="29.7418" y2="44.9308" gradientUnits="userSpaceOnUse">
      <stop stop-color="#36E2D9"/>
      <stop offset="1" stop-color="#36E2D9" stop-opacity="0"/>
    </linearGradient>
    <linearGradient id="paint6_linear_811_1551" x1="29.7418" y1="24.9308" x2="29.7418" y2="44.9308" gradientUnits="userSpaceOnUse">
      <stop stop-color="#36E2D9"/>
      <stop offset="1" stop-color="#36E2D9" stop-opacity="0"/>
    </linearGradient>
    <linearGradient id="paint7_linear_811_1551" x1="29.7418" y1="24.9308" x2="29.7418" y2="44.9308" gradientUnits="userSpaceOnUse">
      <stop stop-color="#36E2D9"/>
      <stop offset="1" stop-color="#36E2D9" stop-opacity="0"/>
    </linearGradient>
    <linearGradient id="paint8_linear_811_1551" x1="29.7418" y1="24.9308" x2="29.7418" y2="44.9308" gradientUnits="userSpaceOnUse">
      <stop stop-color="#36E2D9"/>
      <stop offset="1" stop-color="#36E2D9" stop-opacity="0"/>
    </linearGradient>
    <linearGradient id="paint9_linear_811_1551" x1="29.7418" y1="24.9308" x2="29.7418" y2="44.9308" gradientUnits="userSpaceOnUse">
      <stop stop-color="#36E2D9"/>
      <stop offset="1" stop-color="#36E2D9" stop-opacity="0"/>
    </linearGradient>
    <linearGradient id="paint10_linear_811_1551" x1="29.7418" y1="24.9308" x2="29.7418" y2="44.9308" gradientUnits="userSpaceOnUse">
      <stop stop-color="#36E2D9"/>
      <stop offset="1" stop-color="#36E2D9" stop-opacity="0"/>
    </linearGradient>
    <linearGradient id="paint11_linear_811_1551" x1="29.7418" y1="24.9308" x2="29.7418" y2="44.9308" gradientUnits="userSpaceOnUse">
      <stop stop-color="#36E2D9"/>
      <stop offset="1" stop-color="#36E2D9" stop-opacity="0"/>
    </linearGradient>
    <clipPath id="clip0_811_1551">
      <rect width="56" height="56" fill="white"/>
    </clipPath>
  </defs>
</svg>
