<svg width="50" height="46" viewBox="0 0 50 46" fill="none" xmlns="http://www.w3.org/2000/svg">
<g clip-path="url(#clip0_811_2404)">
<path fill-rule="evenodd" fill="#091638" clip-rule="evenodd" d="M36.9202 32.2656H36.9294H36.9433C37.2155 32.261 37.4739 32.1464 37.6585 31.9445C40.3533 28.9535 41.9914 25.0084 41.9914 20.6825C41.9914 16.3566 40.3533 12.4114 37.6585 9.42046C37.4739 9.22321 37.2155 9.10852 36.9433 9.10852C36.4034 9.10852 35.9696 9.54432 35.9696 10.0765C35.9696 10.3104 36.0527 10.5352 36.2096 10.7095C38.5906 13.3564 40.0441 16.8474 40.0441 20.6779C40.0441 24.5084 38.5952 27.9994 36.2096 30.6463C36.0481 30.8252 35.9604 31.0546 35.9604 31.2931C35.9604 31.5683 36.0804 31.8298 36.2834 32.0133C36.4588 32.1693 36.6849 32.2564 36.9202 32.261V32.2656ZM13.7884 30.6509C11.4027 28.0039 9.95383 24.5129 9.95383 20.6825C9.95383 16.852 11.4027 13.361 13.7884 10.7141C13.936 10.5398 14.0191 10.315 14.0191 10.0856C14.0191 9.54891 13.5807 9.1177 13.0455 9.1177C12.7778 9.1177 12.5194 9.22779 12.3348 9.42046C9.64005 12.4114 8.00195 16.3566 8.00195 20.6825C8.00195 25.0084 9.64005 28.9535 12.3348 31.9445C12.5194 32.1372 12.7732 32.2473 13.0455 32.2473C13.5853 32.2473 14.0191 31.8115 14.0191 31.2793C14.0191 31.05 13.936 30.8298 13.7884 30.6509Z" />
<path fill-rule="evenodd" fill="#091638" clip-rule="evenodd" d="M10.323 40.5734H10.3415C10.8814 40.5734 11.3151 40.1376 11.3151 39.6054C11.3151 39.3164 11.1813 39.0366 10.9552 38.8531C5.47796 34.6602 1.94797 28.0819 1.94797 20.6825C1.94797 13.2876 5.48258 6.70473 10.9552 2.51186C11.1952 2.32837 11.3336 2.04395 11.3336 1.74577C11.3336 1.53016 11.2644 1.32373 11.1306 1.154C10.946 0.915453 10.6599 0.777832 10.36 0.777832C10.1431 0.777832 9.93544 0.85123 9.76471 0.979677C3.82602 5.52577 -0.00390625 12.6637 -0.00390625 20.6825C-0.00390625 28.7012 3.82602 35.8438 9.76471 40.3853C9.92621 40.5 10.12 40.5642 10.3184 40.5688L10.323 40.5734ZM39.6566 40.5734H39.675C39.8735 40.5688 40.0673 40.5046 40.2288 40.3899C46.1675 35.8438 49.9974 28.7058 49.9974 20.6871C49.9974 12.6683 46.1675 5.53036 40.2288 0.984264C40.0626 0.860405 39.8596 0.796182 39.652 0.796182C39.1121 0.796182 38.6783 1.23198 38.6783 1.76412C38.6783 2.05771 38.8122 2.33295 39.0429 2.51645C44.5201 6.70932 48.0501 13.2876 48.0501 20.6871C48.0501 28.0819 44.5155 34.6648 39.0429 38.8577C38.8168 39.0412 38.6876 39.3164 38.6876 39.61C38.6876 40.1467 39.1259 40.578 39.6612 40.578L39.6566 40.5734Z" />
<path fill-rule="evenodd" clip-rule="evenodd" d="M24.0269 29.5637V44.5048C24.0269 45.0415 24.4652 45.4728 25.0005 45.4728C25.5404 45.4728 25.9741 45.037 25.9741 44.5048V29.5637C30.4731 29.082 33.9801 25.2883 33.9801 20.6871C33.9801 15.7557 29.9563 11.7555 24.9959 11.7555C20.0401 11.7555 16.0117 15.7557 16.0117 20.6871C16.0117 25.2883 19.5186 29.082 24.0223 29.5637H24.0269ZM32.0328 20.6871C32.0328 16.8246 28.8858 13.696 25.0005 13.696C21.1152 13.696 17.9682 16.8246 17.9682 20.6871C17.9682 24.5497 21.1152 27.6783 25.0005 27.6783C28.8858 27.6783 32.0328 24.5497 32.0328 20.6871Z" fill="url(#paint0_linear_811_2404)"/>
</g>
<defs>
<linearGradient id="paint0_linear_811_2404" x1="16.0117" y1="28.6141" x2="33.9801" y2="28.6141" gradientUnits="userSpaceOnUse">
<stop stop-color="#393185"/>
<stop offset="1" stop-color="#E4097F"/>
</linearGradient>
<clipPath id="clip0_811_2404">
<rect width="50" height="44.6949" fill="white" transform="translate(0 0.777832)"/>
</clipPath>
</defs>
</svg>
