<svg width="50" height="50" viewBox="0 0 50 50" fill="none" xmlns="http://www.w3.org/2000/svg">
<path fill-rule="evenodd" clip-rule="evenodd" d="M30.0822 38.0492C27.6511 38.0492 25.3663 37.0826 23.6382 35.3544C21.9393 33.6555 21.0312 31.4001 21.0312 28.9982C21.0312 26.5964 21.9393 24.3116 23.6382 22.5835V22.5542C25.3663 20.8846 27.6511 19.9473 30.0822 19.9473C32.4841 19.9473 34.7688 20.8846 36.497 22.5542C36.5263 22.5542 36.5263 22.5835 36.5263 22.5835C38.1959 24.3116 39.1332 26.5964 39.1332 28.9982C39.1332 31.4001 38.1959 33.6555 36.497 35.3544C34.7688 37.0826 32.4841 38.0492 30.0822 38.0492ZM24.6048 23.5501C21.6757 26.5671 21.6757 31.4587 24.6048 34.3878C27.6803 37.4634 32.4841 37.4634 35.5597 34.3878C38.4888 31.4587 38.4888 26.5671 35.5597 23.5501C32.4841 20.5624 27.6803 20.5624 24.6048 23.5501ZM40.9199 40.5389C40.7442 40.5389 40.5684 40.4511 40.422 40.3339L37.6979 37.6098C37.4343 37.3462 37.4343 36.9068 37.6979 36.6432C37.9615 36.3796 38.4009 36.3796 38.6645 36.6432L41.3886 39.3673C41.6522 39.6309 41.6522 40.0703 41.3886 40.3339C41.2714 40.4511 41.0957 40.5389 40.9199 40.5389Z" fill="url(#paint0_linear_811_1853)"/>
<path fill-rule="evenodd" clip-rule="evenodd" d="M47.159 48.9162C46.4267 48.9162 45.6944 48.6233 45.1086 48.0375L38.9575 41.8863C38.6939 41.6227 38.6939 41.1833 38.9575 40.9197L41.9745 37.9027C42.2381 37.6391 42.6775 37.6391 42.9411 37.9027L49.2094 44.0539C49.2094 44.0539 49.2094 44.0832 49.2387 44.0832C50.2639 45.2255 50.2346 47.0123 49.2094 48.0375C48.6236 48.6233 47.8913 48.9162 47.159 48.9162ZM40.422 41.4177L46.0752 47.0709C46.6903 47.686 47.6277 47.686 48.2428 47.0709C48.77 46.5436 48.7407 45.6063 48.2428 44.9912L42.4724 39.338L40.422 41.4177Z" fill="url(#paint1_linear_811_1853)"/>
<path fill-rule="evenodd" clip-rule="evenodd" d="M30.082 41.0955C26.8307 41.0955 23.7844 39.8652 21.4997 37.6098C19.1857 35.2958 17.9262 32.2495 17.9262 29.0275C17.9262 25.7762 19.1857 22.7299 21.4997 20.4452C23.7844 18.1312 26.8307 16.8717 30.082 16.8717C33.304 16.8717 36.3503 18.1312 38.6643 20.4452C40.9197 22.7299 42.15 25.7762 42.15 29.0275C42.15 32.2495 40.9197 35.2958 38.6643 37.6098C36.3503 39.8652 33.304 41.0955 30.082 41.0955ZM30.082 18.2484C27.2994 18.2484 24.546 19.3028 22.437 21.3825C18.2484 25.6004 18.2484 32.4253 22.437 36.6432C26.655 40.744 33.4798 40.744 37.6977 36.6432C41.7985 32.4253 41.7985 25.6004 37.6684 21.3825C35.5888 19.2735 32.8354 18.2484 30.082 18.2484ZM17.1939 15.8172C12.6831 15.8172 8.46514 15.1142 5.27241 13.8547C1.87463 12.478 0 10.6034 0 8.4944C0 6.41473 1.87463 4.51081 5.27241 3.10483C8.46514 1.81602 12.7124 1.08374 17.1939 1.08374C21.6755 1.08374 25.8934 1.81602 29.0861 3.10483C32.4839 4.51081 34.3585 6.41473 34.3585 8.4944C34.3585 10.6034 32.4839 12.478 29.0861 13.8547C25.8934 15.1142 21.6755 15.8172 17.1939 15.8172ZM17.1939 2.46042C12.8881 2.46042 8.81664 3.13412 5.79965 4.36435C2.9877 5.536 1.37668 7.02984 1.37668 8.4944C1.37668 11.3942 7.73287 14.4698 17.1939 14.4698C26.655 14.4698 33.0111 11.3942 33.0111 8.4944C33.0111 7.02984 31.4001 5.536 28.5882 4.36435C25.5419 3.13412 21.4997 2.46042 17.1939 2.46042Z" fill="black"/>
<path fill-rule="evenodd" clip-rule="evenodd" d="M17.1939 22.5542C12.976 22.5542 8.72876 21.6755 5.24312 20.0937C1.96251 18.5706 0 16.7253 0 15.1435V8.49444C0 8.11365 0.292912 7.82074 0.673697 7.82074C1.05448 7.82074 1.37668 8.11365 1.37668 8.49444V15.1435C1.37668 15.9637 2.89982 17.5161 5.79965 18.8342C7.73286 19.7129 11.775 21.2068 17.1939 21.2068C18.5999 21.2068 19.9473 21.0896 21.2947 20.9139C21.6462 20.8553 21.9977 21.1189 22.0562 21.4997C22.1148 21.8512 21.8512 22.2027 21.4704 22.2613C20.0644 22.4663 18.6585 22.5542 17.1939 22.5542ZM33.6848 15.8172C33.304 15.8172 33.0111 15.5243 33.0111 15.1435V8.49444C33.0111 8.11365 33.304 7.82074 33.6848 7.82074C34.0656 7.82074 34.3585 8.11365 34.3585 8.49444V15.1435C34.3585 15.5243 34.0656 15.8172 33.6848 15.8172Z" fill="black"/>
<path fill-rule="evenodd" clip-rule="evenodd" d="M17.1939 29.2912C11.5407 29.2912 7.2935 27.7387 5.24312 26.7721C1.96251 25.2783 0 23.4329 0 21.8805V15.1435C0 14.7628 0.292912 14.4698 0.673697 14.4698C1.05448 14.4698 1.37668 14.7628 1.37668 15.1435V21.8805C1.37668 22.5249 2.54833 24.0481 5.82894 25.5419C7.76216 26.4499 11.8043 27.9438 17.1939 27.9438C17.3989 27.9438 17.604 27.9145 17.8383 27.8852C18.1019 27.8559 18.3656 27.8266 18.6585 27.8266C19.0393 27.8266 19.3322 28.1488 19.3322 28.5296C19.3322 28.9104 19.0393 29.2033 18.6585 29.2033C18.4241 29.2033 18.2191 29.2326 17.9848 29.2619C17.7211 29.2619 17.4575 29.2912 17.1939 29.2912ZM33.6848 18.8635C33.304 18.8635 33.0111 18.5413 33.0111 18.1605V15.1435C33.0111 14.7628 33.304 14.4698 33.6848 14.4698C34.0656 14.4698 34.3585 14.7628 34.3585 15.1435V18.1605C34.3585 18.5413 34.0656 18.8635 33.6848 18.8635Z" fill="black"/>
<path fill-rule="evenodd" clip-rule="evenodd" d="M17.1939 35.9402C11.5407 35.9402 7.26421 34.3878 5.24312 33.4798C1.96251 31.9859 0 30.1699 0 28.6174V21.8805C0 21.4997 0.292912 21.2068 0.673697 21.2068C1.05448 21.2068 1.37668 21.4997 1.37668 21.8805V28.6174C1.37668 29.2619 2.54833 30.7557 5.79965 32.2203C7.73286 33.099 11.775 34.5636 17.1939 34.5636C18.2484 34.5636 19.2736 34.5636 20.2695 34.3878C20.6503 34.3292 21.0018 34.5636 21.0603 34.9443C21.1482 35.2958 20.8846 35.6473 20.5331 35.7352C19.3907 35.9402 18.2777 35.9402 17.1939 35.9402Z" fill="black"/>
<defs>
<linearGradient id="paint0_linear_811_1853" x1="21.0312" y1="30.2431" x2="41.5863" y2="30.2431" gradientUnits="userSpaceOnUse">
<stop stop-color="#393185"/>
<stop offset="1" stop-color="#E4097F"/>
</linearGradient>
<linearGradient id="paint1_linear_811_1853" x1="38.7598" y1="43.3106" x2="49.9931" y2="43.3106" gradientUnits="userSpaceOnUse">
<stop stop-color="#393185"/>
<stop offset="1" stop-color="#E4097F"/>
</linearGradient>
</defs>
</svg>
