<svg width="234" height="66" viewBox="0 0 234 66" fill="none" xmlns="http://www.w3.org/2000/svg">
<rect width="3" height="3" fill="#C2C2F6"/>
<rect x="16" width="3" height="3" fill="#C2C2F6"/>
<rect x="32" width="3" height="3" fill="#C2C2F6"/>
<rect x="48" width="3" height="3" fill="#C2C2F6"/>
<rect x="64" width="3" height="3" fill="#C2C2F6"/>
<rect x="80" width="3" height="3" fill="#C2C2F6"/>
<rect x="96" width="3" height="3" fill="#C2C2F6"/>
<rect x="112" width="3" height="3" fill="#C2C2F6"/>
<rect x="128" width="3" height="3" fill="#C2C2F6"/>
<rect x="144" width="3" height="3" fill="#C2C2F6"/>
<rect x="160" width="3" height="3" fill="#C2C2F6"/>
<rect x="176" width="3" height="3" fill="#C2C2F6"/>
<rect x="192" width="3" height="3" fill="#C2C2F6"/>
<rect x="208" width="3" height="3" fill="#C2C2F6"/>
<rect x="231" width="3" height="3" fill="#C2C2F6"/>
<rect y="16" width="3" height="3" fill="#C2C2F6"/>
<rect x="16" y="16" width="3" height="3" fill="#C2C2F6"/>
<rect x="32" y="16" width="3" height="3" fill="#C2C2F6"/>
<rect x="48" y="16" width="3" height="3" fill="#C2C2F6"/>
<rect x="64" y="16" width="3" height="3" fill="#C2C2F6"/>
<rect x="80" y="16" width="3" height="3" fill="#C2C2F6"/>
<rect x="96" y="16" width="3" height="3" fill="#C2C2F6"/>
<rect x="112" y="16" width="3" height="3" fill="#C2C2F6"/>
<rect x="128" y="16" width="3" height="3" fill="#C2C2F6"/>
<rect x="144" y="16" width="3" height="3" fill="#C2C2F6"/>
<rect x="160" y="16" width="3" height="3" fill="#C2C2F6"/>
<rect x="176" y="16" width="3" height="3" fill="#C2C2F6"/>
<rect x="192" y="16" width="3" height="3" fill="#C2C2F6"/>
<rect x="208" y="16" width="3" height="3" fill="#C2C2F6"/>
<rect x="231" y="16" width="3" height="3" fill="#C2C2F6"/>
<rect y="32" width="3" height="3" fill="#C2C2F6"/>
<rect x="16" y="32" width="3" height="3" fill="#C2C2F6"/>
<rect x="32" y="32" width="3" height="3" fill="#C2C2F6"/>
<rect x="48" y="32" width="3" height="3" fill="#C2C2F6"/>
<rect x="64" y="32" width="3" height="3" fill="#C2C2F6"/>
<rect x="80" y="32" width="3" height="3" fill="#C2C2F6"/>
<rect x="96" y="32" width="3" height="3" fill="#C2C2F6"/>
<rect x="112" y="32" width="3" height="3" fill="#C2C2F6"/>
<rect x="128" y="32" width="3" height="3" fill="#C2C2F6"/>
<rect x="144" y="32" width="3" height="3" fill="#C2C2F6"/>
<rect x="160" y="32" width="3" height="3" fill="#C2C2F6"/>
<rect x="176" y="32" width="3" height="3" fill="#C2C2F6"/>
<rect x="192" y="32" width="3" height="3" fill="#C2C2F6"/>
<rect x="208" y="32" width="3" height="3" fill="#C2C2F6"/>
<rect x="231" y="32" width="3" height="3" fill="#C2C2F6"/>
<rect y="48" width="3" height="3" fill="#C2C2F6"/>
<rect x="16" y="48" width="3" height="3" fill="#C2C2F6"/>
<rect x="32" y="48" width="3" height="3" fill="#C2C2F6"/>
<rect x="48" y="48" width="3" height="3" fill="#C2C2F6"/>
<rect x="64" y="48" width="3" height="3" fill="#C2C2F6"/>
<rect x="80" y="48" width="3" height="3" fill="#C2C2F6"/>
<rect x="96" y="48" width="3" height="3" fill="#C2C2F6"/>
<rect y="63" width="3" height="3" fill="#C2C2F6"/>
<rect x="16" y="63" width="3" height="3" fill="#C2C2F6"/>
<rect x="32" y="63" width="3" height="3" fill="#C2C2F6"/>
<rect x="48" y="63" width="3" height="3" fill="#C2C2F6"/>
<rect x="64" y="63" width="3" height="3" fill="#C2C2F6"/>
<rect x="80" y="63" width="3" height="3" fill="#C2C2F6"/>
<rect x="96" y="63" width="3" height="3" fill="#C2C2F6"/>
</svg>
