<svg width="35" height="213" viewBox="0 0 35 213" fill="none" xmlns="http://www.w3.org/2000/svg">
<rect width="3" height="3" fill="#6C43E3"/>
<rect y="15" width="3" height="3" fill="#6C43E3"/>
<rect y="30" width="3" height="3" fill="#6C43E3"/>
<rect y="45" width="3" height="3" fill="#6C43E3"/>
<rect y="60" width="3" height="3" fill="#6C43E3"/>
<rect y="75" width="3" height="3" fill="#6C43E3"/>
<rect y="90" width="3" height="3" fill="#6C43E3"/>
<rect y="105" width="3" height="3" fill="#6C43E3"/>
<rect y="120" width="3" height="3" fill="#6C43E3"/>
<rect y="135" width="3" height="3" fill="#6C43E3"/>
<rect y="150" width="3" height="3" fill="#6C43E3"/>
<rect y="165" width="3" height="3" fill="#6C43E3"/>
<rect y="180" width="3" height="3" fill="#6C43E3"/>
<rect y="195" width="3" height="3" fill="#6C43E3"/>
<rect y="210" width="3" height="3" fill="#6C43E3"/>
<rect x="16" width="3" height="3" fill="#6C43E3"/>
<rect x="16" y="15" width="3" height="3" fill="#6C43E3"/>
<rect x="16" y="30" width="3" height="3" fill="#6C43E3"/>
<rect x="16" y="45" width="3" height="3" fill="#6C43E3"/>
<rect x="16" y="60" width="3" height="3" fill="#6C43E3"/>
<rect x="16" y="75" width="3" height="3" fill="#6C43E3"/>
<rect x="16" y="90" width="3" height="3" fill="#6C43E3"/>
<rect x="16" y="105" width="3" height="3" fill="#6C43E3"/>
<rect x="16" y="120" width="3" height="3" fill="#6C43E3"/>
<rect x="16" y="135" width="3" height="3" fill="#6C43E3"/>
<rect x="16" y="150" width="3" height="3" fill="#6C43E3"/>
<rect x="16" y="165" width="3" height="3" fill="#6C43E3"/>
<rect x="16" y="180" width="3" height="3" fill="#6C43E3"/>
<rect x="16" y="195" width="3" height="3" fill="#6C43E3"/>
<rect x="16" y="210" width="3" height="3" fill="#6C43E3"/>
<rect x="32" width="3" height="3" fill="#6C43E3"/>
<rect x="32" y="15" width="3" height="3" fill="#6C43E3"/>
<rect x="32" y="30" width="3" height="3" fill="#6C43E3"/>
<rect x="32" y="45" width="3" height="3" fill="#6C43E3"/>
<rect x="32" y="60" width="3" height="3" fill="#6C43E3"/>
<rect x="32" y="75" width="3" height="3" fill="#6C43E3"/>
<rect x="32" y="90" width="3" height="3" fill="#6C43E3"/>
<rect x="32" y="105" width="3" height="3" fill="#6C43E3"/>
<rect x="32" y="120" width="3" height="3" fill="#6C43E3"/>
<rect x="32" y="135" width="3" height="3" fill="#6C43E3"/>
<rect x="32" y="150" width="3" height="3" fill="#6C43E3"/>
<rect x="32" y="165" width="3" height="3" fill="#6C43E3"/>
<rect x="32" y="180" width="3" height="3" fill="#6C43E3"/>
<rect x="32" y="195" width="3" height="3" fill="#6C43E3"/>
<rect x="32" y="210" width="3" height="3" fill="#6C43E3"/>
</svg>
