<svg width="24" height="24" viewBox="0 0 24 24" fill="none" xmlns="http://www.w3.org/2000/svg">
<path d="M19.7625 4.5H4.2375C3.51208 4.50198 2.81693 4.79103 2.30398 5.30398C1.79103 5.81693 1.50198 6.51208 1.5 7.2375V16.7625C1.50198 17.4879 1.79103 18.1831 2.30398 18.696C2.81693 19.209 3.51208 19.498 4.2375 19.5H19.7625C20.4879 19.498 21.1831 19.209 21.696 18.696C22.209 18.1831 22.498 17.4879 22.5 16.7625V7.2375C22.498 6.51208 22.209 5.81693 21.696 5.30398C21.1831 4.79103 20.4879 4.50198 19.7625 4.5ZM21 16.7625C21 17.0907 20.8696 17.4055 20.6375 17.6375C20.4055 17.8696 20.0907 18 19.7625 18H4.2375C3.90929 18 3.59453 17.8696 3.36246 17.6375C3.13038 17.4055 3 17.0907 3 16.7625V7.2375C3 6.90929 3.13038 6.59453 3.36246 6.36246C3.59453 6.13038 3.90929 6 4.2375 6H19.7625C20.0907 6 20.4055 6.13038 20.6375 6.36246C20.8696 6.59453 21 6.90929 21 7.2375V16.7625Z" fill="#CAC4DB"/>
<path d="M19.1175 7.77772L12 12.0452L4.88253 7.77772C4.79766 7.716 4.70078 7.67277 4.59815 7.65084C4.49553 7.62891 4.38944 7.62876 4.28675 7.6504C4.18407 7.67203 4.08706 7.71498 4.00202 7.77646C3.91697 7.83794 3.84577 7.91659 3.79303 8.00731C3.74028 8.09804 3.70716 8.19882 3.69581 8.30314C3.68446 8.40747 3.69512 8.51302 3.72712 8.61296C3.75912 8.71291 3.81174 8.80503 3.88157 8.88336C3.9514 8.96169 4.0369 9.0245 4.13253 9.06772L11.6325 13.5677C11.7465 13.6335 11.8759 13.6682 12.0075 13.6682C12.1392 13.6682 12.2685 13.6335 12.3825 13.5677L19.8825 9.06772C20.0327 8.95852 20.137 8.7975 20.1753 8.61582C20.2136 8.43413 20.1831 8.24471 20.0898 8.0842C19.9965 7.92369 19.8469 7.80349 19.6701 7.74688C19.4933 7.69026 19.3017 7.70125 19.1325 7.77772H19.1175Z" fill="url(#paint0_linear_696_7326)"/>
<defs>
<linearGradient id="paint0_linear_696_7326" x1="3.69141" y1="10.6512" x2="20.1914" y2="10.6512" gradientUnits="userSpaceOnUse">
<stop stop-color="#393185"/>
<stop offset="1" stop-color="#E4097F"/>
</linearGradient>
</defs>
</svg>
