<svg width="23" height="23" viewBox="0 0 23 23" fill="none" xmlns="http://www.w3.org/2000/svg">
<path d="M11.6281 19.9184C9.37174 19.9184 9.10574 19.9065 8.2252 19.868C7.53853 19.8454 6.86075 19.7058 6.22105 19.4552C5.67363 19.2422 5.17649 18.9176 4.7612 18.5022C4.34592 18.0868 4.02156 17.5895 3.80873 17.042C3.56778 16.4 3.43782 15.7216 3.42441 15.036C3.37305 14.1573 3.37305 13.8693 3.37305 11.6303C3.37305 9.36752 3.38497 9.10335 3.42441 8.2274C3.43811 7.5427 3.56807 6.86532 3.80873 6.22417C4.02132 5.67597 4.34589 5.17813 4.76173 4.76245C5.17757 4.34677 5.67553 4.02239 6.2238 3.81001C6.86462 3.56805 7.54218 3.43775 8.22704 3.42477C9.10299 3.37524 9.391 3.37524 11.6281 3.37524C13.9029 3.37524 14.1643 3.38717 15.0311 3.42477C15.7171 3.43762 16.3977 3.56786 17.0398 3.81001C17.5879 4.02263 18.0858 4.34711 18.5016 4.76276C18.9174 5.1784 19.242 5.67611 19.4549 6.22417C19.6998 6.8754 19.8309 7.56332 19.841 8.25767C19.8924 9.13637 19.8924 9.42347 19.8924 11.6615C19.8924 13.8996 19.8795 14.1931 19.841 15.0617C19.8273 15.748 19.697 16.4269 19.4558 17.0695C19.2424 17.6174 18.9175 18.1149 18.5015 18.5305C18.0856 18.9461 17.5878 19.2707 17.0398 19.4837C16.3977 19.724 15.7199 19.8542 15.0347 19.868C14.1588 19.9184 13.8717 19.9184 11.6281 19.9184ZM11.5969 4.82722C9.3534 4.82722 9.12042 4.83823 8.24446 4.87767C7.72132 4.88451 7.20322 4.98099 6.71269 5.16293C6.3549 5.30007 6.02983 5.51066 5.75841 5.78113C5.487 6.05159 5.27527 6.37593 5.13688 6.73323C4.95344 7.22853 4.85713 7.75227 4.85162 8.2806C4.80301 9.16939 4.80301 9.40237 4.80301 11.6303C4.80301 13.8317 4.81127 14.0986 4.85162 14.9819C4.85988 15.5047 4.95619 16.0229 5.13688 16.5137C5.41756 17.2355 5.98991 17.806 6.7136 18.0831C7.20351 18.2661 7.7215 18.3626 8.24446 18.3683C9.13234 18.4197 9.36624 18.4197 11.5969 18.4197C13.8469 18.4197 14.0799 18.4087 14.9485 18.3683C15.4717 18.362 15.9899 18.2655 16.4803 18.0831C16.8362 17.9449 17.1594 17.7341 17.4294 17.4643C17.6994 17.1944 17.9104 16.8713 18.0488 16.5155C18.2322 16.0202 18.3285 15.4955 18.334 14.9672H18.3441C18.3835 14.0903 18.3835 13.8564 18.3835 11.6157C18.3835 9.37486 18.3735 9.13913 18.334 8.26317C18.3257 7.74077 18.2293 7.22352 18.0488 6.73323C17.9107 6.37693 17.6999 6.05329 17.4299 5.78293C17.1598 5.51257 16.8364 5.30142 16.4803 5.16293C15.99 4.98011 15.4717 4.8836 14.9485 4.87767C14.0615 4.82722 13.8295 4.82722 11.5969 4.82722ZM11.6281 15.867C10.7894 15.8676 9.96932 15.6194 9.27166 15.1538C8.57399 14.6882 8.03007 14.0262 7.70867 13.2515C7.38728 12.4768 7.30286 11.6241 7.46609 10.8014C7.62932 9.97873 8.03287 9.22291 8.62569 8.62957C9.21852 8.03623 9.97399 7.63203 10.7966 7.46809C11.6191 7.30415 12.4718 7.38783 13.2468 7.70855C14.0218 8.02927 14.6843 8.57262 15.1505 9.26989C15.6166 9.96715 15.8656 10.787 15.8657 11.6257C15.8643 12.7495 15.4175 13.8269 14.6232 14.6219C13.8289 15.4169 12.7519 15.8646 11.6281 15.867ZM11.6281 8.87221C11.0839 8.87221 10.5519 9.0336 10.0994 9.33596C9.64686 9.63832 9.29417 10.0681 9.0859 10.5709C8.87763 11.0737 8.82313 11.627 8.92931 12.1607C9.03548 12.6945 9.29756 13.1848 9.68239 13.5696C10.0672 13.9545 10.5575 14.2166 11.0913 14.3227C11.6251 14.4289 12.1784 14.3744 12.6812 14.1661C13.184 13.9579 13.6137 13.6052 13.9161 13.1527C14.2184 12.7002 14.3798 12.1681 14.3798 11.6239C14.3781 10.8946 14.0877 10.1957 13.572 9.68004C13.0563 9.16436 12.3574 8.87391 11.6281 8.87221ZM16.0308 8.21823C15.901 8.21774 15.7725 8.19169 15.6527 8.14156C15.533 8.09142 15.4242 8.01818 15.3327 7.92603C15.148 7.73991 15.0448 7.48802 15.0457 7.22578C15.0467 6.96354 15.1518 6.71243 15.3379 6.52769C15.5241 6.34294 15.7759 6.2397 16.0382 6.24068C16.3004 6.24165 16.5515 6.34676 16.7363 6.53288C16.921 6.71899 17.0243 6.97088 17.0233 7.23312C17.0223 7.49536 16.9172 7.74647 16.7311 7.93122C16.545 8.11596 16.2931 8.2192 16.0308 8.21823Z" fill="url(#paint0_linear_696_7321)"/>
<defs>
<linearGradient id="paint0_linear_696_7321" x1="3.37305" y1="11.6468" x2="19.8924" y2="11.6468" gradientUnits="userSpaceOnUse">
<stop stop-color="#393185"/>
<stop offset="1" stop-color="#E4097F"/>
</linearGradient>
</defs>
</svg>
