<svg xmlns="http://www.w3.org/2000/svg" width="202.459" height="60.721" viewBox="0 0 202.459 60.721"><g transform="translate(18494.49 -14217)"><path d="M21.344,39.62A19.816,19.816,0,0,1,2.065,24.389H18.411v5.977l11.7-10.509L18.411,9.346v5.978H2.044A19.791,19.791,0,0,1,21.344,0,19.81,19.81,0,0,1,35.351,33.818,19.68,19.68,0,0,1,21.344,39.62Z" transform="translate(-18496.533 14238.101)" fill="#bd4328"/><path d="M1030.69,228.089V251.9h4.571V234.109c.674.5,7.419,9.893,8.993,11.716,1.424,1.749,4.122,6.345,6.07,6.345,1.424,0,2.249-.325,2.249-2.623V225.592H1048v17.786l-9.592-12.565c-1.05-1.4-3.6-5.221-4.946-5.221-1.2,0-2.773-.125-2.773,2.5Z" transform="translate(-19411.033 14016.52)" fill="#bd4328" fill-rule="evenodd"/><path d="M475.272,227.939v23.955h4.5V233.959l11.69,15.337a10.174,10.174,0,0,0,1.948,2.2c.825.725,2.548,1.149,3.372.024a2.177,2.177,0,0,0,.375-1.249V225.59h-4.421v17.935a5.238,5.238,0,0,1-.9-1.049c-2.847-3.771-7.12-9.742-9.742-12.889-.3-.4-.524-.725-.9-1.149-1.574-2.2-1.8-2.847-3.9-2.847a2.119,2.119,0,0,0-2.024,2.349Z" transform="translate(-18917.4 14016.522)" fill="#bd4328" fill-rule="evenodd"/><path d="M1487.99,252.178a2.287,2.287,0,0,0,1.649-.874,4.152,4.152,0,0,0,.45-2.048V226.05c0-.35-.149-.45-.45-.45h-4.271v17.336a7.982,7.982,0,0,1-1.424-2.074l-6.819-10.817c-.45-.749-.825-1.424-1.349-2.173a10.7,10.7,0,0,1-.675-1.074,7.48,7.48,0,0,1-.749-1.2h-5.4c0,.775,3.148,4.946,3.747,6.046.225.35.375.55.6.874,1.424,1.924,5.321,8.044,6.819,10.367l2.847,4.221a43.549,43.549,0,0,0,2.923,4.247,3.3,3.3,0,0,0,2.1.825Z" transform="translate(-19800.561 14016.513)" fill="#bd4328" fill-rule="evenodd"/><path d="M698.539,251.906a1.447,1.447,0,0,0,.749-.175,1.906,1.906,0,0,0,1.2-1.873V225.327c-5.47,0-4.721-.424-4.721,1.773v15.413c-.149.05.15.375-.3-.249l-.974-1.674c-1.723-2.448-3.822-6.17-5.47-8.643l-4.122-6.62h-5.62c.149.474.225.4.524.849,1.649,2.623,4.347,6.295,5.7,8.668l3.972,6.02a7.53,7.53,0,0,1,.6.849c.3.375.375.574.6.9l5.4,8.118A3.35,3.35,0,0,0,698.539,251.906Z" transform="translate(-19098.717 14016.785)" fill="#bd4328" fill-rule="evenodd"/><path d="M1688.95,241.948l6.894-.175-.075-4.371h-6.819V231h8.018v-4.3h-12.59v26.079l12.59.026V248.46l-8.094-.026Z" transform="translate(-19992 14015.527)" fill="#bd4328" fill-rule="evenodd"/><path d="M1248.45,230.286l-.15,21.433,4.347.1.075-21.558,6.67.025v-4.7H1241.41v4.7Z" transform="translate(-19598.313 14016.522)" fill="#bd4328" fill-rule="evenodd"/><path d="M1417.12,251.894h4.721v-26.3h-4.721Z" transform="translate(-19754.469 14016.522)" fill="#bd4328" fill-rule="evenodd"/><path d="M407.97,251.894h4.646v-26.3H407.97Z" transform="translate(-18857.584 14016.522)" fill="#bd4328" fill-rule="evenodd"/><path d="M901.292,241.948l6.894-.175-.075-4.371h-6.819V231h8.018v-4.3H896.72v26.079l12.59.026V248.46l-8.094-.026Z" transform="translate(-19291.965 14015.527)" fill="#bd4328" fill-rule="evenodd"/><circle cx="5.96" cy="5.96" r="5.96" transform="translate(-18467.195 14226.021)" fill="#a6a6a6"/><circle cx="3.522" cy="3.522" r="3.522" transform="translate(-18456.805 14217)" fill="#2a2927"/><g transform="translate(-18300.176 14230.896)"><g transform="translate(0 0)"><path d="M4.072,0A4.07,4.07,0,0,1,8.144,4.072,4.161,4.161,0,0,1,6.966,6.966,4.161,4.161,0,0,1,4.072,8.144,4.07,4.07,0,0,1,0,4.072,3.962,3.962,0,0,1,1.206,1.206,3.962,3.962,0,0,1,4.072,0Zm2.6,1.5A3.643,3.643,0,0,0,4.072.429,3.58,3.58,0,0,0,1.5,1.5,3.58,3.58,0,0,0,.429,4.072,3.643,3.643,0,0,0,1.5,6.671,3.692,3.692,0,0,0,4.072,7.743a3.757,3.757,0,0,0,2.6-1.072,3.757,3.757,0,0,0,1.072-2.6A3.692,3.692,0,0,0,6.671,1.5Z" transform="translate(0 0)" fill="#2b2a29"/><path d="M1.509,1.162h.375c.509,0,.831,0,1.072.241a.85.85,0,0,1,.268.67.85.85,0,0,1-.268.67c-.241.241-.563.241-1.072.241H1.509V1.162ZM1,.68v4.5h.509V3.466h.375a3.637,3.637,0,0,0,.643-.027L3.25,5.181h.536L3.009,3.306a1.335,1.335,0,0,0,.723-1.232,1.413,1.413,0,0,0-.4-1.018A1.951,1.951,0,0,0,1.884.68H1Z" transform="translate(1.679 1.142)" fill="#2b2a29"/></g></g></g></svg>