<svg width="54" height="50" viewBox="0 0 54 50" fill="none" xmlns="http://www.w3.org/2000/svg">
<g clip-path="url(#clip0_811_1508)">
<path d="M26.7935 43.2388L23.3836 44.8308V25.7812C23.3836 25.3498 23.0097 25 22.5485 25C22.0873 25 21.7134 25.3498 21.7134 25.7812V44.8298L1.67026 35.4546V12.2017L7.51616 14.9361V22.6562C7.51616 22.9523 7.69477 23.2227 7.97777 23.3551L12.9885 25.6989C13.1064 25.7538 13.2344 25.7812 13.3621 25.7812C13.5146 25.7812 13.6671 25.742 13.8012 25.6645C14.0471 25.5222 14.1972 25.2708 14.1972 25V18.0611L22.175 21.7926C22.2924 21.8475 22.4205 21.875 22.5485 21.875C22.6765 21.875 22.8046 21.8475 22.922 21.7926L43.4267 12.2017V24.5781C43.4267 25.0095 43.8003 25.3593 44.2619 25.3593C44.7235 25.3593 45.097 25.0095 45.097 24.5781V10.9375C45.097 10.6415 44.9184 10.371 44.6354 10.2386L35.449 5.94177L30.4382 3.59802L22.922 0.0823975C22.6871 -0.0274658 22.4098 -0.0274658 22.175 0.0823975L0.461605 10.2386C0.178607 10.371 0 10.6415 0 10.9375V35.9375C0 36.2335 0.178607 36.504 0.461605 36.6364L22.175 46.7926C22.1823 46.796 22.1909 46.7945 22.1984 46.7978C22.3056 46.8446 22.4223 46.875 22.5485 46.875C22.6748 46.875 22.7915 46.8446 22.8988 46.7976C22.9061 46.7945 22.9144 46.7959 22.9216 46.7926L27.5397 44.6365C27.9524 44.4439 28.1196 43.9751 27.914 43.5886C27.7077 43.203 27.2078 43.0447 26.7935 43.2388ZM12.5269 23.7358L9.18642 22.1733V15.7173L12.5269 17.2798V23.7358ZM22.5485 20.2202L15.2297 16.7969L35.0754 7.51419L42.3942 10.9375L22.5485 20.2202ZM33.2078 6.64062L13.3621 15.9233L10.2187 14.453L30.0647 5.17044L33.2078 6.64062ZM22.5485 1.65482L28.197 4.29688L8.35129 13.5796L2.70275 10.9375L22.5485 1.65482Z" fill="#14142A"/>
<path d="M12.9001 32.1136C12.6415 31.9931 12.3337 32.0057 12.0874 32.148C11.8415 32.2903 11.6914 32.5417 11.6914 32.8125V37.5C11.6914 37.796 11.87 38.0665 12.153 38.1989L18.834 41.3239C18.9519 41.3788 19.0799 41.4062 19.2076 41.4062C19.3601 41.4062 19.5126 41.367 19.6467 41.2895C19.8926 41.1472 20.0427 40.8958 20.0427 40.625V35.9375C20.0427 35.6415 19.8641 35.371 19.5811 35.2386L12.9001 32.1136ZM18.3724 39.3608L13.3617 37.0171V34.0767L18.3724 36.4204V39.3608ZM40.9209 26.5625C34.0132 26.5625 28.394 31.8195 28.394 38.2812C28.394 44.743 34.0132 50 40.9209 50C47.8287 50 53.4479 44.743 53.4479 38.2812C53.4479 31.8195 47.8287 26.5625 40.9209 26.5625ZM40.9209 48.4375C34.9348 48.4375 30.0643 43.8816 30.0643 38.2812C30.0643 32.6809 34.9348 28.125 40.9209 28.125C46.9071 28.125 51.7776 32.6809 51.7776 38.2812C51.7776 43.8816 46.9071 48.4375 40.9209 48.4375Z" fill="#14142A"/>
<path d="M40.9208 29.6875C35.8554 29.6875 31.7344 33.5426 31.7344 38.2812C31.7344 43.0199 35.8554 46.875 40.9208 46.875C45.9862 46.875 50.1072 43.0199 50.1072 38.2812C50.1072 33.5426 45.9862 29.6875 40.9208 29.6875ZM40.9208 45.3125C36.7761 45.3125 33.4046 42.1581 33.4046 38.2812C33.4046 34.4044 36.7761 31.25 40.9208 31.25C45.0655 31.25 48.437 34.4044 48.437 38.2812C48.437 42.1581 45.0655 45.3125 40.9208 45.3125Z" fill="url(#paint0_linear_811_1508)"/>
<path d="M44.5061 36.1664L40.0858 40.3015L37.3357 37.7289C37.0095 37.4237 36.481 37.4237 36.1548 37.7289C35.8286 38.0341 35.8286 38.5284 36.1548 38.8336L39.4953 41.9586C39.6585 42.1112 39.8721 42.1875 40.0858 42.1875C40.2995 42.1875 40.5132 42.1112 40.6763 41.9586L45.687 37.2711C46.0133 36.9659 46.0133 36.4716 45.687 36.1664C45.3608 35.8612 44.8323 35.8612 44.5061 36.1664Z" fill="url(#paint1_linear_811_1508)"/>
</g>
<defs>
<linearGradient id="paint0_linear_811_1508" x1="31.7344" y1="38.2812" x2="50.1072" y2="38.2812" gradientUnits="userSpaceOnUse">
<stop stop-color="#393185"/>
<stop offset="1" stop-color="#E4097F"/>
</linearGradient>
<linearGradient id="paint1_linear_811_1508" x1="35.9102" y1="39.0625" x2="45.9317" y2="39.0625" gradientUnits="userSpaceOnUse">
<stop stop-color="#393185"/>
<stop offset="1" stop-color="#E4097F"/>
</linearGradient>
<clipPath id="clip0_811_1508">
<rect width="53.4483" height="50" fill="white"/>
</clipPath>
</defs>
</svg>
