<svg width="95" height="20" viewBox="0 0 95 20" fill="none" xmlns="http://www.w3.org/2000/svg">
<g clip-path="url(#clip0_895_2241)">
<path fill-rule="evenodd" clip-rule="evenodd" d="M19.999 0.491688V9.95676C19.999 15.4961 15.515 19.9977 10.002 19.9977C4.48895 19.9977 0.00195312 15.4961 0.00195312 9.95676V0.485842C0.00195312 0.216915 0.221187 -0.00231934 0.493038 -0.00231934H5.46819C5.73712 -0.00231934 5.95635 0.216915 5.95635 0.485842V9.33706C5.95635 11.5732 7.77161 13.3973 10.002 13.3973C12.2294 13.3973 14.0476 11.5732 14.0476 9.33706V3.23358C14.0476 2.96465 14.2668 2.74542 14.5357 2.74542H17.0233C17.2951 2.74542 17.5115 2.96465 17.5115 3.23358V9.6469C17.5115 13.8065 14.144 17.1915 10.002 17.1915C5.85989 17.1915 2.48953 13.8065 2.48953 9.6469V3.23358C2.48953 2.96465 2.70876 2.74542 2.97769 2.74542C3.24954 2.74542 3.46878 2.96465 3.46878 3.23358V9.6469C3.46878 13.2628 6.39774 16.2093 10.002 16.2093C13.6032 16.2093 16.5322 13.2628 16.5322 9.6469V3.72758H15.0268V9.33706C15.0268 12.1199 12.7702 14.3824 10.002 14.3824C7.23376 14.3824 4.97711 12.1169 4.97711 9.33706V0.97985H0.981199V9.95383C0.981199 14.9524 5.02972 19.0126 10.002 19.0126C14.9742 19.0126 19.0198 14.9524 19.0198 9.95383V0.97985H14.5386C14.2668 0.97985 14.0476 0.760615 14.0476 0.488765C14.0476 0.216915 14.2668 -0.00231934 14.5386 -0.00231934H19.5079C19.7798 -0.00231934 19.999 0.216915 19.999 0.488765V0.491688Z" fill="url(#paint0_linear_895_2241)"/>
<path d="M26.5352 19.571V17.8961L28.7041 17.5248V2.27198L26.5352 1.90075V0.211182H28.7041H32.1972L38.4323 14.9057H38.5141L44.5504 0.211182H50.3878V1.90075L48.2218 2.27198V17.5248L50.3878 17.8961V19.571H43.4337V17.8961L45.7225 17.5248V11.9095V3.78616L45.6553 3.77739L39.3706 18.8812H37.6284L31.1245 3.80078L31.0601 3.81539L31.1508 11.9124V17.5278L33.4922 17.899V19.5739H26.5352V19.571ZM52.7176 19.571V17.8961L54.8865 17.5248V2.27198L52.7176 1.90075V0.211182H54.8865H60.2972C62.0072 0.211182 63.5009 0.620419 64.7725 1.43597C66.0441 2.25444 67.0379 3.374 67.7453 4.79756C68.4527 6.22697 68.8064 7.85807 68.8064 9.69087V10.103C68.8064 11.8949 68.4673 13.5055 67.7862 14.9349C67.1022 16.3644 66.1347 17.4956 64.8807 18.3258C63.6237 19.1559 62.1446 19.5681 60.4317 19.5681H52.7176V19.571ZM57.5056 17.5248H60.2972C61.522 17.5248 62.5714 17.1887 63.4513 16.5222C64.3282 15.8499 65.0034 14.9554 65.4741 13.8359C65.9505 12.7163 66.1873 11.471 66.1873 10.1059V9.66456C66.1873 8.25854 65.9505 6.99575 65.4741 5.88496C65.0034 4.77417 64.3253 3.89139 63.4513 3.24246C62.5714 2.59937 61.522 2.27198 60.2972 2.27198H57.5056V17.5248ZM70.9198 19.571V17.8961L73.0888 17.5248V2.27198L70.9198 1.90075V0.211182H73.0888H76.5819L82.8169 14.9057H82.8988L88.935 0.211182H94.7725V1.90075L92.6065 2.27198V17.5248L94.7725 17.8961V19.571H87.8184V17.8961L90.1072 17.5248V11.9095V3.78616L90.04 3.77739L83.7553 18.8812H82.0131L75.5091 3.80078L75.4448 3.81539L75.5354 11.9124V17.5278L77.8769 17.899V19.5739H70.9198V19.571Z" fill="#091638"/>
</g>
<defs>
<linearGradient id="paint0_linear_895_2241" x1="8.061" y1="2.74834" x2="8.061" y2="18.1357" gradientUnits="userSpaceOnUse">
<stop stop-color="#26A390"/>
<stop offset="1" stop-color="#0094D6"/>
</linearGradient>
<clipPath id="clip0_895_2241">
<rect width="95" height="20" fill="white"/>
</clipPath>
</defs>
</svg>
