<svg width="164" height="20" viewBox="0 0 164 20" fill="none" xmlns="http://www.w3.org/2000/svg">
<g clip-path="url(#clip0_895_2284)">
<path fill-rule="evenodd" clip-rule="evenodd" d="M20 0.381359V9.84826C20 15.3871 15.5158 19.8906 10.0019 19.8906C4.48807 19.8906 0 15.3871 0 9.84826V0.377509C0 0.108071 0.2194 -0.111328 0.490762 -0.111328H5.46574C5.73518 -0.111328 5.95458 0.108071 5.95458 0.377509V9.22855C5.95458 11.4668 7.76944 13.2894 10 13.2894C12.2286 13.2894 14.0454 11.4668 14.0454 9.22855V3.12385C14.0454 2.85441 14.2648 2.63502 14.5343 2.63502H17.0227C17.2941 2.63502 17.5115 2.85441 17.5115 3.12385V9.53648C17.5115 13.6974 14.1436 17.0807 10.0019 17.0807C5.86028 17.0807 2.48845 13.6954 2.48845 9.53648V3.12385C2.48845 2.85441 2.70785 2.63502 2.97729 2.63502C3.24865 2.63502 3.46805 2.85441 3.46805 3.12385V9.53648C3.46805 13.1527 6.39723 16.0973 10.0019 16.0973C13.6028 16.0973 16.5319 13.1527 16.5319 9.53648V3.61846H15.0269V9.22855C15.0269 12.0095 12.7714 14.2747 10.0019 14.2747C7.23249 14.2747 4.97691 12.0095 4.97691 9.22855V0.872121H0.981524V9.84826C0.981524 14.8463 5.03079 18.9071 10.0038 18.9071C14.9769 18.9071 19.0223 14.8463 19.0223 9.84826V0.872121H14.54C14.2687 0.872121 14.0493 0.652721 14.0493 0.381359C14.0493 0.109996 14.2687 -0.109404 14.54 -0.109404H19.5092C19.7806 -0.109404 20 0.109996 20 0.381359Z" fill="url(#paint0_linear_895_2284)"/>
<path d="M33.3768 15.9985C32.4819 15.9956 31.6192 15.8638 30.7858 15.6016C29.9568 15.3394 29.1659 14.9352 28.4102 14.3889V11.2428H29.9568L30.2922 13.5569C30.7302 13.8294 31.2077 14.0373 31.7188 14.1853C32.23 14.3332 32.7866 14.4094 33.3768 14.4094C34.0535 14.4094 34.6233 14.3054 35.0934 14.0989C35.5636 13.8953 35.9224 13.6082 36.1714 13.245C36.4204 12.8788 36.5449 12.454 36.5449 11.9707C36.5449 11.5181 36.438 11.1168 36.2241 10.7755C36.0059 10.4299 35.6515 10.1296 35.1564 9.87038C34.6584 9.6082 33.9817 9.37971 33.1249 9.18638C32.1128 8.94764 31.2604 8.6342 30.5588 8.2402C29.8616 7.84621 29.3329 7.3658 28.9726 6.80337C28.6094 6.24094 28.4307 5.59502 28.4307 4.86562C28.4307 4.0952 28.6342 3.40828 29.0414 2.80044C29.4486 2.1926 30.0184 1.71659 30.7478 1.3636C31.4772 1.01501 32.3267 0.837788 33.2963 0.837788C34.3289 0.837788 35.2414 0.993043 36.0323 1.30795C36.8261 1.62285 37.4794 2.0022 37.9905 2.44745V5.38997H36.4424L36.107 3.28671C35.8067 3.04064 35.4259 2.84145 34.9733 2.67887C34.5207 2.51629 33.9612 2.4372 33.2948 2.4372C32.728 2.4372 32.2271 2.5368 31.7965 2.73453C31.3644 2.93519 31.029 3.21055 30.7844 3.57085C30.5427 3.92677 30.4211 4.34713 30.4211 4.83486C30.4211 5.25961 30.5325 5.6331 30.7492 5.94654C30.9704 6.26437 31.3263 6.54412 31.8228 6.78286C32.3164 7.0216 32.9799 7.2457 33.8089 7.45661C35.3629 7.84035 36.5376 8.41011 37.3358 9.16002C38.137 9.91285 38.5383 10.8414 38.5383 11.9502C38.5383 12.7382 38.3245 13.4383 37.8997 14.0505C37.475 14.6584 36.8774 15.1388 36.104 15.48C35.3307 15.8257 34.4211 15.9941 33.3754 15.9985H33.3768ZM40.1992 15.7847V14.5104L41.847 14.2278V6.40352L40.1992 6.12083V4.83632H43.6397L43.7716 6.26291C44.1245 5.74442 44.5727 5.34456 45.1293 5.05749C45.6815 4.77481 46.3215 4.63274 47.0495 4.63274C47.7789 4.63274 48.4028 4.80117 48.9286 5.14097C49.4501 5.47931 49.8441 5.98316 50.1062 6.6569C50.4519 6.03881 50.9045 5.54522 51.4698 5.18198C52.0396 4.81582 52.7002 4.63274 53.4559 4.63274C54.5749 4.63274 55.4596 5.01648 56.1055 5.7825C56.7544 6.54998 57.0795 7.69974 57.0795 9.23618V14.2278L58.7273 14.5104V15.7847H53.4252V14.5104L55.0729 14.2278V9.22007C55.0729 8.13914 54.8898 7.37605 54.5163 6.9264C54.1473 6.47675 53.598 6.25265 52.8686 6.25265C52.1743 6.25265 51.6148 6.49872 51.193 6.98792C50.7712 7.47565 50.5266 8.08934 50.4607 8.83193V14.2278L52.1084 14.5104V15.7847H46.8166V14.5104L48.4643 14.2278V9.22007C48.4643 8.1948 48.2739 7.4405 47.8946 6.96741C47.5152 6.49139 46.9616 6.25265 46.2395 6.25265C45.6317 6.25265 45.1308 6.37715 44.7412 6.62907C44.3501 6.87807 44.0498 7.22666 43.8433 7.67924V14.2278L45.4911 14.5104V15.7847H40.1992ZM63.7452 15.9985C62.6057 15.9956 61.7386 15.7188 61.144 15.1622C60.5493 14.6056 60.2534 13.822 60.2534 12.81C60.2534 12.1128 60.4468 11.5079 60.8261 10.9923C61.2055 10.4738 61.7591 10.074 62.4812 9.78689C63.2033 9.49982 64.066 9.35921 65.0722 9.35921H67.0231V8.28561C67.0231 7.62505 66.8225 7.11095 66.4226 6.74918C66.0213 6.38301 65.4559 6.20286 64.7265 6.20286C64.271 6.20286 63.8697 6.25851 63.5343 6.36836C63.196 6.47821 62.8884 6.63347 62.6115 6.82827L62.4006 8.35884H60.8598V5.84841C61.3534 5.45148 61.9276 5.14683 62.5808 4.94324C63.237 4.73526 63.962 4.63274 64.7573 4.63274C66.0872 4.63274 67.13 4.95057 67.8829 5.58623C68.6401 6.21897 69.0195 7.12706 69.0195 8.30758V13.5789C69.0195 13.721 69.0195 13.8587 69.0224 13.9934C69.0253 14.1311 69.0326 14.2658 69.0458 14.4006L70.1092 14.5119V15.7862H67.2458C67.1842 15.4888 67.1388 15.2237 67.1037 14.9879C67.0685 14.7492 67.0451 14.5148 67.0304 14.2761C66.6467 14.7697 66.1663 15.1813 65.5907 15.5064C65.0136 15.8345 64.3984 15.9971 63.7423 16L63.7452 15.9985ZM64.0381 14.3274C64.7016 14.3274 65.3021 14.1692 65.8514 13.8513C66.3977 13.5364 66.7873 13.1542 67.0217 12.7074V10.7243H64.9975C64.0821 10.7243 63.3951 10.9454 62.9352 11.3834C62.4753 11.8184 62.2483 12.309 62.2483 12.848C62.2483 13.3285 62.3962 13.6946 62.6936 13.9465C62.9865 14.1985 63.4362 14.3259 64.0367 14.3259L64.0381 14.3274ZM71.6368 15.7847V14.5104L73.2875 14.2278V6.40352L71.6368 6.12083V4.83632H75.0671L75.2399 6.23215L75.2604 6.42549C75.5709 5.86598 75.9517 5.42658 76.4072 5.11022C76.8627 4.79238 77.3842 4.6342 77.9715 4.6342C78.178 4.6342 78.3933 4.65471 78.6145 4.69279C78.8327 4.72794 78.9909 4.76602 79.0846 4.79678L78.8225 6.64811L77.4369 6.56902C76.9081 6.53387 76.4658 6.65544 76.1099 6.92787C75.7511 7.20029 75.4742 7.56646 75.2809 8.02636V14.2292L76.9286 14.5119V15.7862H71.6368V15.7847ZM84.4893 15.9575C83.6808 15.9575 83.0378 15.7188 82.5618 15.2428C82.0857 14.7697 81.847 14.0066 81.847 12.9637V6.31417H80.1158V4.83632H81.847V2.19407H83.8404V4.83632H86.2205V6.31417H83.8404V12.9637C83.8404 13.4896 83.9473 13.8762 84.1553 14.1282C84.3662 14.3772 84.646 14.5016 84.9946 14.5016C85.2333 14.5016 85.4955 14.4811 85.7855 14.4357C86.0755 14.3903 86.2996 14.3523 86.4622 14.3186L86.7346 15.6236C86.4446 15.71 86.0887 15.7891 85.6668 15.855C85.245 15.9238 84.8525 15.959 84.4893 15.959V15.9575ZM93.2318 15.7847V14.5104L94.8825 14.2278V2.61882L93.2318 2.33614V1.05163H94.8825H100.002C101.055 1.05163 101.954 1.23764 102.695 1.60381C103.435 1.96997 104.004 2.48407 104.394 3.14756C104.784 3.80666 104.981 4.58147 104.981 5.46466C104.981 6.35518 104.785 7.12999 104.394 7.79202C104.003 8.45258 103.433 8.96375 102.695 9.32845C101.952 9.69169 101.055 9.87477 100.002 9.87477H96.8759V14.2278L98.5266 14.5104V15.7847H93.2318ZM96.8759 8.31637H100.002C101 8.31637 101.749 8.04687 102.244 7.51227C102.742 6.97766 102.989 6.29952 102.989 5.48517C102.989 4.66642 102.74 3.98682 102.244 3.4405C101.75 2.89418 101 2.61882 100.002 2.61882H96.8759V8.31783V8.31637ZM106.267 15.7847V14.5104L107.918 14.2278V6.40352L106.267 6.12083V4.83632H109.698L109.87 6.23215L109.891 6.42549C110.201 5.86598 110.582 5.42658 111.038 5.11022C111.493 4.79238 112.015 4.6342 112.602 4.6342C112.809 4.6342 113.024 4.65471 113.245 4.69279C113.463 4.72794 113.621 4.76602 113.715 4.79678L113.453 6.64811L112.067 6.56902C111.539 6.53387 111.096 6.65544 110.74 6.92787C110.382 7.20029 110.105 7.56646 109.911 8.02636V14.2292L111.559 14.5119V15.7862H106.267V15.7847ZM119.714 15.9985C118.702 15.9956 117.822 15.7671 117.072 15.3043C116.327 14.8414 115.745 14.1985 115.338 13.3768C114.931 12.5507 114.727 11.6016 114.727 10.5236V10.0784C114.727 9.03845 114.941 8.10985 115.37 7.2911C115.798 6.46942 116.368 5.82351 117.08 5.34603C117.791 4.87001 118.568 4.63127 119.411 4.63127C120.396 4.63127 121.222 4.83486 121.888 5.23911C122.551 5.64335 123.052 6.21311 123.391 6.94544C123.726 7.67777 123.895 8.53753 123.895 9.52911V10.7755H116.792L116.762 10.8239C116.776 11.5284 116.896 12.1494 117.131 12.6928C117.362 13.2347 117.698 13.6639 118.136 13.9744C118.575 14.2819 119.099 14.4372 119.714 14.4372C120.388 14.4372 120.983 14.3435 121.49 14.1501C122.001 13.9568 122.439 13.6902 122.812 13.3563L123.588 14.651C123.199 15.0275 122.68 15.3482 122.034 15.6075C121.391 15.8667 120.618 15.9941 119.713 15.9985H119.714ZM116.851 9.2186H121.901V8.95203C121.901 8.42622 121.807 7.95752 121.621 7.54302C121.438 7.12852 121.162 6.80044 120.792 6.5617C120.426 6.32003 119.963 6.20286 119.411 6.20286C118.966 6.20286 118.562 6.33028 118.199 6.58953C117.832 6.8517 117.532 7.20469 117.298 7.64702C117.063 8.09227 116.907 8.60051 116.832 9.16734L116.852 9.2186H116.851ZM125.141 19.9956V18.7111L126.689 18.4284V6.40498L125.041 6.1223V4.83779H128.398L128.582 6.17503C128.948 5.67411 129.39 5.29476 129.911 5.03112C130.437 4.76895 131.041 4.6342 131.729 4.6342C132.634 4.6342 133.405 4.8788 134.046 5.36946C134.689 5.85719 135.175 6.54412 135.514 7.42439C135.852 8.30172 136.018 9.33431 136.018 10.5163V10.7272C136.018 11.7803 135.848 12.6986 135.506 13.491C135.168 14.279 134.68 14.8971 134.046 15.3394C133.411 15.7818 132.65 15.9985 131.76 16.0029C131.086 16 130.491 15.8887 129.985 15.6617C129.474 15.4376 129.041 15.1022 128.683 14.6569V18.4328L130.424 18.7155V20H125.142L125.141 19.9956ZM131.14 14.4387C132.086 14.4387 132.801 14.0974 133.285 13.409C133.772 12.7177 134.014 11.8272 134.014 10.7257V10.5148C134.014 9.67558 133.907 8.94031 133.689 8.30026C133.475 7.66459 133.153 7.16368 132.725 6.79751C132.297 6.43427 131.761 6.25119 131.118 6.25119C130.552 6.25119 130.068 6.37862 129.664 6.63786C129.257 6.89418 128.932 7.24277 128.68 7.68803V13.0209C128.932 13.4735 129.257 13.822 129.657 14.0681C130.058 14.3171 130.552 14.4372 131.139 14.4372L131.14 14.4387ZM141.099 16C139.959 15.9971 139.092 15.7202 138.497 15.1637C137.903 14.6071 137.607 13.8235 137.607 12.8114C137.607 12.1142 137.8 11.5093 138.179 10.9938C138.559 10.4753 139.112 10.0754 139.835 9.78836C140.557 9.50128 141.419 9.36067 142.426 9.36067H144.376V8.28707C144.376 7.62651 144.176 7.11241 143.776 6.75064C143.375 6.38447 142.809 6.20432 142.08 6.20432C141.624 6.20432 141.223 6.25998 140.888 6.36983C140.549 6.47968 140.242 6.63493 139.965 6.82973L139.754 8.36031H138.213V5.84987C138.707 5.45295 139.281 5.1483 139.934 4.94471C140.59 4.73673 141.315 4.6342 142.111 4.6342C143.441 4.6342 144.483 4.95203 145.236 5.5877C145.993 6.22043 146.373 7.12852 146.373 8.30904V13.5804C146.373 13.7224 146.373 13.8601 146.376 13.9949C146.379 14.1326 146.386 14.2673 146.399 14.4021L147.463 14.5134V15.7876H144.599C144.538 15.4903 144.492 15.2252 144.457 14.9894C144.422 14.7506 144.398 14.5163 144.384 14.2776C144 14.7711 143.52 15.1827 142.944 15.5079C142.367 15.836 141.752 15.9985 141.096 16.0015L141.099 16ZM141.391 14.3288C142.055 14.3288 142.656 14.1706 143.205 13.8528C143.751 13.5379 144.141 13.1556 144.375 12.7089V10.7257H142.351C141.435 10.7257 140.749 10.9469 140.289 11.3848C139.829 11.8198 139.602 12.3105 139.602 12.8495C139.602 13.3299 139.75 13.6961 140.047 13.948C140.34 14.1999 140.79 14.3274 141.39 14.3274L141.391 14.3288ZM148.939 15.7862V14.5119L150.59 14.2292V6.40498L148.939 6.1223V4.83779H152.583V14.2292L154.234 14.5119V15.7862H148.939ZM150.49 2.13548V0.00146466H152.586V2.13548H150.49ZM159.909 16C159.017 15.9971 158.254 15.7788 157.616 15.3365C156.98 14.8942 156.494 14.2761 156.155 13.4881C155.817 12.6972 155.651 11.7788 155.651 10.7243V10.5134C155.651 9.3387 155.817 8.30904 156.155 7.42585C156.494 6.54119 156.981 5.85427 157.623 5.36653C158.262 4.87587 159.032 4.63127 159.93 4.63127C160.576 4.63127 161.148 4.75284 161.643 4.99011C162.141 5.23178 162.562 5.57744 162.915 6.03003V1.56719L161.264 1.28451V0H162.915H164.908V14.2278L166.559 14.5104V15.7847H163.177L163.014 14.4797C162.658 14.9806 162.221 15.357 161.705 15.6119C161.191 15.8682 160.589 15.9956 159.909 15.9985V16ZM160.413 14.3801C161.008 14.3801 161.509 14.2453 161.911 13.9758C162.316 13.7034 162.651 13.3226 162.913 12.8319V7.75101C162.657 7.2911 162.323 6.92494 161.911 6.6569C161.5 6.3874 161.006 6.25265 160.434 6.25265C159.801 6.25265 159.277 6.43281 158.865 6.79458C158.453 7.15342 158.147 7.65434 157.947 8.2944C157.743 8.93006 157.642 9.66972 157.642 10.5148V10.7257C157.642 11.8272 157.866 12.7089 158.319 13.3782C158.771 14.0447 159.468 14.3801 160.412 14.3801H160.413Z" fill="#091638"/>
</g>
<defs>
<linearGradient id="paint0_linear_895_2284" x1="8.06197" y1="2.63694" x2="8.06197" y2="18.0238" gradientUnits="userSpaceOnUse">
<stop stop-color="#26A390"/>
<stop offset="1" stop-color="#0094D6"/>
</linearGradient>
<clipPath id="clip0_895_2284">
<rect width="164" height="20" fill="white"/>
</clipPath>
</defs>
</svg>
