<svg width="100" height="20" viewBox="0 0 100 20" fill="none" xmlns="http://www.w3.org/2000/svg">
<g clip-path="url(#clip0_895_1346)">
<path fill-rule="evenodd" clip-rule="evenodd" d="M20.0684 0.490415V9.9569C20.0684 15.4971 15.5833 20 10.0698 20C4.5564 20 0.0683594 15.4971 0.0683594 9.9569V0.487442C0.0683594 0.219944 0.288303 0 0.558774 0H5.53425C5.80472 0 6.0217 0.219944 6.0217 0.487442V9.33868C6.0217 11.5768 7.83474 13.3987 10.0669 13.3987C12.296 13.3987 14.1121 11.5738 14.1121 9.33868V3.23376C14.1121 2.96329 14.332 2.74632 14.5995 2.74632H17.0872C17.3607 2.74632 17.5747 2.96627 17.5747 3.23376V9.64779C17.5747 13.8089 14.2042 17.1913 10.0639 17.1913C5.92064 17.1913 2.55015 13.8059 2.55015 9.64779V3.23376C2.55015 2.96329 2.7701 2.74632 3.0376 2.74632C3.30807 2.74632 3.52801 2.96627 3.52801 3.23376V9.64779C3.52801 13.265 6.45861 16.2104 10.0609 16.2104C13.6603 16.2104 16.5909 13.265 16.5909 9.64779V3.73012H15.0869V9.34166C15.0869 12.1236 12.831 14.3885 10.0609 14.3885C7.29083 14.3885 5.03492 12.1236 5.03492 9.34166V0.983801H1.0373V9.95987C1.0373 14.9591 5.08545 19.0192 10.0609 19.0192C15.0334 19.0192 19.0786 14.9591 19.0786 9.95987V0.983801H14.5965C14.3231 0.983801 14.1061 0.763858 14.1061 0.493387C14.1061 0.222916 14.326 0.00297221 14.5965 0.00297221H19.5661C19.8395 0.00297221 20.0565 0.222916 20.0565 0.493387L20.0684 0.490415Z" fill="url(#paint0_linear_895_1346)"/>
<path d="M32.4679 19.5719L27.9472 2.09829L26.3125 1.89915V0.210938H32.5898V1.89915L30.5806 2.20826L33.1099 12.8607L33.6955 15.3425L33.7727 15.3573L34.5455 12.8696L38.4451 0.210938H40.7455L44.6808 12.8696L45.4387 15.503H45.5159L46.2114 12.8696L48.7111 2.20826L46.5414 1.89915V0.210938H52.7087V1.89915L51.184 2.09829L46.8445 19.5719H44.3627L40.16 6.16725L39.628 4.21153H39.5477L39.0306 6.16725L34.813 19.5719H32.4709H32.4679ZM54.7387 19.5719V17.8986L56.9084 17.527V2.27068L54.7387 1.89915V0.210938H69.2996V4.86839H67.1982L66.9069 2.24987H59.5269V8.94923H66.6157V11.009H59.5269V17.527L61.6967 17.8986V19.5719H54.7387ZM71.6149 19.5719V17.8986L73.7846 17.527V2.27068L71.6149 1.89915V0.210938H73.7846H77.28L83.5157 14.9085H83.5959L89.6325 0.210938H95.4699V1.89915L93.3061 2.27068V17.527L95.4699 17.8986V19.5719H88.5149V17.8986L90.8035 17.527V11.9125V3.78651L90.7352 3.77759L84.4489 18.8824H82.7072L76.204 3.79839L76.1416 3.81326L76.2337 11.9096V17.5241L78.5758 17.8956V19.5689H71.6179L71.6149 19.5719Z" fill="#091638"/>
</g>
<defs>
<linearGradient id="paint0_linear_895_1346" x1="8.12899" y1="2.74632" x2="8.12899" y2="18.1364" gradientUnits="userSpaceOnUse">
<stop stop-color="#26A390"/>
<stop offset="1" stop-color="#0094D6"/>
</linearGradient>
<clipPath id="clip0_895_1346">
<rect width="100" height="20" fill="white"/>
</clipPath>
</defs>
</svg>
