<svg width="50" height="47" viewBox="0 0 50 47" fill="none" xmlns="http://www.w3.org/2000/svg">
<mask id="mask0_783_6166" style="mask-type:luminance" maskUnits="userSpaceOnUse" x="0" y="0" width="50" height="46">
<path d="M50 0.625H0V45.1851H50V0.625Z" fill="white"/>
</mask>
<g mask="url(#mask0_783_6166)">
<path fill-rule="evenodd" clip-rule="evenodd" d="M0.628996 11.8171C0.282664 11.8171 0.00195312 11.5364 0.00195312 11.19C0.00195312 10.8437 0.282664 10.563 0.628996 10.563H49.3725C49.7188 10.563 49.9995 10.8437 49.9995 11.19C49.9995 11.5364 49.7188 11.8171 49.3725 11.8171H0.628996Z" fill="#091638"/>
<path fill-rule="evenodd" clip-rule="evenodd" d="M7.32454 5.96039C7.32454 5.69973 7.21881 5.46459 7.0493 5.29507C6.87978 5.12554 6.64464 5.01983 6.38398 5.01983C6.12331 5.01983 5.88635 5.12554 5.71684 5.29324C5.54914 5.46459 5.44341 5.69973 5.44341 5.96039C5.44341 6.22104 5.54914 6.45619 5.71865 6.6257C5.88818 6.79523 6.12331 6.90095 6.38398 6.90095C6.64464 6.90095 6.87978 6.79523 7.0493 6.6257C7.21881 6.45619 7.32454 6.22104 7.32454 5.96039ZM7.937 4.40737C8.33437 4.80473 8.58045 5.35522 8.58045 5.96039C8.58045 6.56555 8.33437 7.11604 7.937 7.51342C7.53962 7.91078 6.99096 8.15685 6.38398 8.15685C5.77699 8.15685 5.22833 7.91078 4.83095 7.51342C4.43359 7.11604 4.1875 6.56555 4.1875 5.96039C4.1875 5.35339 4.43359 4.80473 4.83095 4.40737C5.23196 4.00999 5.78063 3.76392 6.38398 3.76392C6.98915 3.76392 7.53962 4.00999 7.937 4.40737Z" fill="#091638"/>
<path fill-rule="evenodd" clip-rule="evenodd" d="M14.0179 5.96039C14.0179 5.69973 13.9121 5.46459 13.7426 5.29507C13.5731 5.12554 13.338 5.01983 13.0774 5.01983C12.8166 5.01983 12.5797 5.12554 12.4102 5.29324C12.2425 5.46459 12.1368 5.69973 12.1368 5.96039C12.1368 6.22104 12.2425 6.45619 12.412 6.6257C12.5815 6.79523 12.8166 6.90095 13.0774 6.90095C13.338 6.90095 13.5731 6.79523 13.7426 6.6257C13.9121 6.45619 14.0179 6.22104 14.0179 5.96039ZM14.6304 4.40737C15.0277 4.80473 15.2737 5.35522 15.2737 5.96039C15.2737 6.56555 15.0277 7.11604 14.6304 7.51342C14.233 7.91078 13.6844 8.15685 13.0774 8.15685C12.4703 8.15685 11.9217 7.91078 11.5243 7.51342C11.1269 7.11604 10.8809 6.56555 10.8809 5.96039C10.8809 5.35339 11.1269 4.80473 11.5243 4.40737C11.9253 4.00999 12.474 3.76392 13.0774 3.76392C13.6825 3.76392 14.233 4.00999 14.6304 4.40737Z" fill="#091638"/>
<path fill-rule="evenodd" clip-rule="evenodd" d="M20.7112 5.96039C20.7112 5.69973 20.6055 5.46459 20.436 5.29507C20.2665 5.12554 20.0313 5.01983 19.7707 5.01983C19.51 5.01983 19.2748 5.12554 19.1053 5.29507C18.9358 5.46459 18.8301 5.69973 18.8301 5.96039C18.8301 6.22104 18.9358 6.45619 19.1053 6.6257C19.2748 6.79523 19.51 6.90095 19.7707 6.90095C20.0313 6.90095 20.2665 6.79523 20.436 6.6257C20.6055 6.45619 20.7112 6.22104 20.7112 5.96039ZM21.3237 4.40737C21.7211 4.80473 21.9671 5.35522 21.9671 5.96039C21.9671 6.56555 21.7211 7.11604 21.3237 7.51342C20.9263 7.91078 20.3758 8.15685 19.7707 8.15685C19.1655 8.15685 18.615 7.91078 18.2176 7.51342C17.8202 7.11604 17.5742 6.56555 17.5742 5.96039C17.5742 5.35339 17.8202 4.80473 18.2176 4.40737C18.615 4.00999 19.1655 3.76392 19.7707 3.76392C20.3777 3.76392 20.9263 4.00999 21.3237 4.40737Z" fill="#091638"/>
<path fill-rule="evenodd" clip-rule="evenodd" d="M45.189 45.1851H4.81218C3.49066 45.1851 2.28761 44.6438 1.41632 43.7725C0.543194 42.8975 0 41.6945 0 40.373V5.43719C0 4.11384 0.541371 2.91079 1.41267 2.03767L1.45095 2.00304C2.32042 1.15179 3.50888 0.625 4.81218 0.625L45.0833 0.626822C46.4066 0.625 47.6097 1.16637 48.4828 2.03767C49.3541 2.90896 49.8955 4.11384 49.8955 5.43719L49.8973 40.6536C49.8991 41.8531 49.396 42.9595 48.5795 43.778C47.772 44.5891 46.6527 45.1195 45.4187 45.1796L45.189 45.187V45.1851ZM4.81218 43.9292L45.3585 43.9274C46.27 43.8836 47.0956 43.4918 47.6917 42.8939C48.2786 42.3033 48.6432 41.5104 48.6432 40.6519L48.6396 5.43536C48.6396 4.45835 48.2386 3.56883 47.5951 2.92355C46.9516 2.2801 46.0621 1.87909 45.0833 1.87909L4.81218 1.87726C3.84975 1.87909 2.97298 2.26734 2.32953 2.89256L2.30037 2.92355C1.65692 3.567 1.25591 4.45652 1.25591 5.43536V40.3711C1.25591 41.35 1.6551 42.2395 2.30037 42.883C2.94382 43.5264 3.83335 43.9274 4.81218 43.9274V43.9292Z" fill="#091638"/>
<path fill-rule="evenodd" clip-rule="evenodd" d="M28.8705 27.925C28.8705 24.881 28.3856 22.1395 27.6 20.1672C26.8836 18.3681 25.9614 17.2562 25.0008 17.2562C24.0401 17.2562 23.1177 18.3699 22.4014 20.1672C21.6158 22.1376 21.1309 24.881 21.1309 27.925C21.1309 30.9691 21.6158 33.7106 22.4014 35.6829C23.1177 37.482 24.0401 38.5939 25.0008 38.5939C25.9614 38.5939 26.8836 37.4801 27.6 35.6829C28.3856 33.7124 28.8705 30.9691 28.8705 27.925ZM28.763 19.706C29.6051 21.8222 30.1265 24.7296 30.1265 27.925C30.1265 31.1186 29.6051 34.0277 28.763 36.144C27.8516 38.4335 26.5246 39.8497 25.0008 39.8497C23.4769 39.8497 22.1499 38.4335 21.2385 36.144C20.3964 34.0277 19.875 31.1204 19.875 27.925C19.875 24.7296 20.3964 21.8222 21.2385 19.706C22.1499 17.4166 23.4769 16.0002 25.0008 16.0002C26.5246 16.0002 27.8498 17.4166 28.763 19.706Z" fill="url(#paint0_linear_783_6166)"/>
<path fill-rule="evenodd" clip-rule="evenodd" d="M15.8169 22.5806C15.3375 23.4117 15.8406 24.7678 17.04 26.2881C18.356 27.9559 20.4851 29.7459 23.1135 31.2643L23.1336 31.2753C25.7602 32.7901 28.3741 33.7361 30.4759 34.0423C32.3952 34.3212 33.8225 34.0806 34.3 33.2512C34.7795 32.4182 34.2764 31.0619 33.0751 29.5418C31.7591 27.8757 29.6264 26.0821 26.9925 24.5619L26.9706 24.5492C24.3476 23.0381 21.7374 22.0938 19.6392 21.7894C17.7199 21.5106 16.2926 21.7529 15.8132 22.5823L15.8169 22.5806ZM16.0592 27.0628C14.5336 25.1306 13.9704 23.2732 14.7322 21.9534C15.4979 20.6338 17.3845 20.1927 19.8179 20.5463C22.0564 20.8707 24.8196 21.8659 27.5776 23.4537L27.6231 23.4773C30.3901 25.0759 32.6486 26.9807 34.0576 28.7653C35.5832 30.6974 36.1465 32.5548 35.3846 33.8746C34.619 35.1943 32.7325 35.6354 30.3009 35.2818C28.0587 34.9554 25.29 33.9584 22.5266 32.3671L22.4901 32.3471C19.7212 30.7467 17.4665 28.8437 16.0592 27.0628Z" fill="url(#paint1_linear_783_6166)"/>
<path fill-rule="evenodd" clip-rule="evenodd" d="M15.7836 33.1602C16.2612 33.9896 17.6885 34.2321 19.6097 33.9513C21.715 33.6451 24.3326 32.6955 26.9647 31.1788C29.5969 29.6605 31.7277 27.8668 33.0456 26.199C34.2467 24.6787 34.7499 23.319 34.2705 22.4896C33.7929 21.6602 32.3639 21.4196 30.4445 21.6985C28.3391 22.0047 25.7216 22.9543 23.0912 24.471L23.0766 24.4782C20.4519 25.9948 18.3246 27.7848 17.0104 29.449C15.8091 30.9692 15.3061 32.3272 15.7855 33.1585L15.7836 33.1602ZM19.7847 35.1927C17.3495 35.5463 15.4629 35.1052 14.6991 33.7836C13.9371 32.464 14.5004 30.6083 16.0261 28.678C17.4351 26.8935 19.6936 24.9886 22.4642 23.3901L22.4787 23.3827C25.2476 21.7878 28.0201 20.7871 30.2657 20.4608C32.7011 20.1072 34.5895 20.5483 35.3514 21.8698C36.1134 23.1896 35.5501 25.0451 34.0244 26.9773C32.6154 28.7618 30.3551 30.6667 27.5845 32.2652C24.812 33.8638 22.034 34.8682 19.7829 35.1945L19.7847 35.1927Z" fill="url(#paint2_linear_783_6166)"/>
</g>
<defs>
<linearGradient id="paint0_linear_783_6166" x1="19.875" y1="27.925" x2="30.1265" y2="27.925" gradientUnits="userSpaceOnUse">
<stop stop-color="#393185"/>
<stop offset="1" stop-color="#E4097F"/>
</linearGradient>
<linearGradient id="paint1_linear_783_6166" x1="14.3945" y1="27.9141" x2="35.7223" y2="27.9141" gradientUnits="userSpaceOnUse">
<stop stop-color="#393185"/>
<stop offset="1" stop-color="#E4097F"/>
</linearGradient>
<linearGradient id="paint2_linear_783_6166" x1="14.3613" y1="27.8268" x2="35.6891" y2="27.8268" gradientUnits="userSpaceOnUse">
<stop stop-color="#393185"/>
<stop offset="1" stop-color="#E4097F"/>
</linearGradient>
</defs>
</svg>
