<svg width="50" height="50" viewBox="0 0 50 50" fill="none" xmlns="http://www.w3.org/2000/svg">
<g clip-path="url(#clip0_783_6203)">
<mask id="mask0_783_6203" style="mask-type:luminance" maskUnits="userSpaceOnUse" x="0" y="0" width="50" height="50">
<path d="M50 0.625H0V49.573H50V0.625Z" fill="white"/>
</mask>
<g mask="url(#mask0_783_6203)">
<path fill-rule="evenodd" clip-rule="evenodd" d="M30.4034 18.9438C30.4379 18.6848 30.4724 18.426 30.507 18.1497C30.5588 17.7007 30.576 17.2173 30.576 16.7167C30.576 16.2332 30.5588 15.7498 30.507 15.301C30.4724 15.042 30.4379 14.783 30.4034 14.5067L27.641 14.2477C27.2956 14.2132 27.0366 13.9715 26.9331 13.6607C26.8123 13.2291 26.6569 12.8147 26.5015 12.4176C26.3288 12.0033 26.1216 11.6062 25.9144 11.2263C25.7245 10.9155 25.7936 10.5184 26.0353 10.2595L27.7618 8.15312C27.6064 7.94593 27.451 7.73876 27.2956 7.54883C27.0194 7.20353 26.7086 6.85823 26.3979 6.54745C26.0525 6.20214 25.69 5.8741 25.3274 5.56333C25.103 5.37342 24.8785 5.20077 24.6368 5.02812L22.4959 6.80643C22.2196 7.03088 21.8399 7.04814 21.5636 6.87549C21.201 6.6683 20.8213 6.47839 20.4069 6.30574L20.3378 6.2712C19.9579 6.11582 19.5609 5.97771 19.1465 5.85684C18.8011 5.75325 18.5595 5.44248 18.5595 5.09718L18.3178 2.38654C18.0588 2.352 17.7998 2.31748 17.5235 2.28294C17.0746 2.23115 16.5913 2.21389 16.0905 2.21389C15.3309 2.21389 14.5885 2.26568 13.8806 2.38654L13.6216 5.14897C13.5871 5.49428 13.3454 5.77052 13.0346 5.85684C12.6203 5.97771 12.2059 6.11582 11.7915 6.28847C11.3599 6.46113 10.9628 6.6683 10.6002 6.87549C10.3067 7.04814 9.94412 7.0136 9.68515 6.78917L7.527 5.01084C7.31982 5.16623 7.11263 5.32162 6.90545 5.49428C6.52562 5.80504 6.16305 6.13309 5.83501 6.46113C5.50697 6.78917 5.1962 7.13447 4.90268 7.47977C4.73003 7.68695 4.55738 7.9114 4.402 8.13584L6.18031 10.2767C6.40476 10.5357 6.42202 10.8983 6.26663 11.1918C6.0422 11.5889 5.85227 11.986 5.67962 12.4004C5.50697 12.7975 5.36885 13.2118 5.248 13.6435C5.16167 13.9887 4.86816 14.2132 4.52286 14.2305L1.76042 14.5067C1.7259 14.783 1.69136 15.042 1.65683 15.301C1.6223 15.7498 1.58777 16.216 1.58777 16.6993C1.58777 17.2001 1.60503 17.6662 1.65683 18.1151C1.6741 18.3741 1.70863 18.6503 1.76042 18.9266L4.54012 19.1856C4.88542 19.2201 5.16167 19.4618 5.248 19.7898C5.29978 19.9798 5.35158 20.1697 5.42065 20.3596C5.47245 20.5322 5.55877 20.7222 5.6451 20.9293L5.66236 20.9812C5.74868 21.2056 5.85227 21.4128 5.9386 21.6027C6.05946 21.8445 6.16305 22.0516 6.26663 22.2415C6.4393 22.5523 6.3875 22.9321 6.16305 23.1738L4.402 25.2802C4.8509 25.8672 5.33432 26.437 5.85227 26.9722L5.88681 27.024C6.40476 27.542 6.95725 28.0081 7.527 28.4397L9.66788 26.6615C9.92686 26.437 10.2894 26.4197 10.5657 26.5751C10.9455 26.7822 11.3426 26.9722 11.7397 27.1448C12.1713 27.3175 12.5858 27.4728 13.0174 27.5937C13.3454 27.6973 13.5698 27.9908 13.6044 28.3188L13.8634 31.0467C14.0878 31.0813 14.3295 31.1158 14.5539 31.1331C14.9683 31.1676 15.3999 31.2022 15.8315 31.2022C15.8834 31.2022 15.9351 31.2022 15.9869 31.2195H16.0733C16.574 31.2195 17.0574 31.1848 17.5063 31.1503C17.7653 31.1158 18.0415 31.0813 18.3005 31.0467L18.5595 28.2843C18.594 27.9391 18.8184 27.6801 19.1293 27.5765C19.5609 27.4383 19.9925 27.3002 20.4069 27.1276C20.8213 26.955 21.201 26.765 21.5981 26.5578C21.9089 26.3852 22.2715 26.437 22.5305 26.6615L24.6541 28.4052C25.2584 27.9563 25.8281 27.4728 26.3634 26.9377C26.8813 26.4197 27.3648 25.85 27.7964 25.263L26.0353 23.1221C25.8109 22.8631 25.7936 22.5005 25.949 22.2242C26.1734 21.8272 26.3634 21.4301 26.536 21.033C26.7086 20.6358 26.8468 20.2042 26.9676 19.7726C27.0713 19.4273 27.382 19.1856 27.7273 19.1856L30.4379 18.9438H30.4034ZM10.0304 43.2015C9.66788 42.9252 9.59882 42.4246 9.87507 42.0792C10.1513 41.7167 10.652 41.6476 10.9973 41.9238L14.4849 44.5482C14.8474 44.8243 14.9165 45.3251 14.6403 45.6703C14.5885 45.7395 14.5366 45.7912 14.4676 45.8431L10.9973 48.4673C10.6347 48.7436 10.134 48.6572 9.87507 48.312C9.59882 47.9493 9.68515 47.4487 10.0304 47.1897L11.6016 46.0157H9.73695C7.9241 46.0157 6.26663 45.2733 5.07535 44.082C3.88405 42.8907 3.14163 41.2332 3.14163 39.4203V32.687C3.14163 32.2381 3.50421 31.8755 3.95311 31.8755C4.402 31.8755 4.76457 32.2381 4.76457 32.687V39.4203C4.76457 40.8016 5.31706 42.0447 6.21485 42.9425C7.11263 43.8403 8.35573 44.3927 9.73695 44.3927H11.6016L10.0304 43.2187V43.2015ZM39.951 11.399C40.3136 11.6752 40.3826 12.1759 40.1064 12.5212C39.8301 12.8838 39.3295 12.9528 38.9841 12.6766L35.4966 10.0523C35.134 9.77604 35.065 9.27535 35.3413 8.93004C35.393 8.86099 35.4448 8.80919 35.5139 8.75739L38.9841 6.13309C39.3468 5.85684 39.8474 5.94317 40.1064 6.28847C40.3826 6.65104 40.2964 7.15173 39.951 7.4107L38.3971 8.58474H40.2618C42.0746 8.58474 43.7321 9.32714 44.9234 10.5184C46.1148 11.7097 46.8571 13.3672 46.8571 15.1801V21.9135C46.8571 22.3623 46.4945 22.725 46.0456 22.725C45.5968 22.725 45.2341 22.3623 45.2341 21.9135V15.1801C45.2341 13.7988 44.6818 12.5557 43.7839 11.6579C42.8861 10.7602 41.643 10.2077 40.2618 10.2077H38.3971L39.951 11.3817V11.399ZM48.3074 39.455L48.3419 39.1096C48.3765 38.7988 48.3938 38.4881 48.3938 38.1427C48.3938 37.7975 48.3765 37.4867 48.3419 37.1932L48.3074 36.8478L46.5809 36.6752C46.2355 36.6407 45.9766 36.399 45.873 36.0882C45.7866 35.7947 45.7004 35.5185 45.5795 35.2422L45.5623 35.2077C45.4586 34.9487 45.3205 34.6897 45.1824 34.448C45.0098 34.1545 45.0443 33.792 45.2515 33.533L46.3564 32.1862L46.1493 31.9273C45.9594 31.6856 45.7521 31.4611 45.5276 31.2367C45.3033 31.0122 45.0615 30.7878 44.8025 30.5633L44.4918 30.3043L43.1451 31.4266C42.8689 31.6683 42.4718 31.6683 42.1783 31.4785C41.9538 31.3403 41.6948 31.2195 41.4359 31.1158L41.384 31.0986C41.1424 30.995 40.8661 30.9086 40.5899 30.8223C40.2445 30.7187 40.0029 30.408 40.0029 30.0627L39.8474 28.388L39.5021 28.3533C39.2086 28.3188 38.8806 28.3016 38.5353 28.3016C38.19 28.3016 37.862 28.3188 37.5684 28.3533L37.2231 28.388L37.0678 30.1145C37.0333 30.4597 36.7915 30.736 36.4808 30.8223C36.1873 30.9086 35.911 30.995 35.6348 31.1158C35.3413 31.2367 35.0823 31.3748 34.8405 31.513C34.547 31.6856 34.1845 31.6511 33.9255 31.4266L32.5788 30.3043L32.3025 30.5288C32.0436 30.736 31.8019 30.9605 31.5774 31.1848C31.353 31.4093 31.1458 31.6338 30.9386 31.8755L30.7141 32.169L31.8364 33.5157C32.0609 33.7747 32.0781 34.1372 31.9228 34.4307C31.7674 34.6897 31.6465 34.966 31.5256 35.2422C31.422 35.5185 31.3184 35.7947 31.2321 36.071C31.1285 36.4162 30.835 36.6407 30.4898 36.658L28.7805 36.8306L28.7459 37.1932C28.7114 37.4867 28.7114 37.7975 28.7114 38.1427C28.7114 38.4881 28.7286 38.8161 28.7631 39.1096L28.7978 39.4722L30.5415 39.6448C30.8868 39.6793 31.163 39.9211 31.2494 40.2491C31.2839 40.37 31.3184 40.5081 31.3703 40.629C31.4911 40.9225 31.5946 41.1815 31.7155 41.475L31.94 41.9066C32.1126 42.2173 32.0609 42.5972 31.8364 42.8388L30.7486 44.1511C31.0076 44.4963 31.3011 44.8243 31.6293 45.1525C31.94 45.4632 32.268 45.7567 32.6134 46.033L33.96 44.928C34.219 44.7036 34.5815 44.6862 34.8578 44.8417C35.1168 44.9798 35.393 45.118 35.652 45.2215C35.9283 45.3423 36.2218 45.446 36.5153 45.515C36.8433 45.6186 37.0678 45.9121 37.1023 46.2401L37.2576 47.9493L37.5339 47.984C37.8101 48.0185 38.1036 48.0185 38.3971 48.0185L38.5525 48.0357C38.8979 48.0357 39.2259 48.0185 39.5194 47.984L39.8648 47.9493L40.0201 46.2228C40.0546 45.8776 40.2964 45.6186 40.5899 45.515C40.8834 45.4287 41.1769 45.3251 41.4531 45.2215C41.7121 45.118 41.9884 44.9798 42.2473 44.8417C42.5581 44.669 42.9551 44.7208 43.1969 44.9625L44.4918 46.033C44.8544 45.7567 45.1824 45.4632 45.4931 45.1525C45.8039 44.8417 46.0801 44.5136 46.3564 44.1683L45.2515 42.8216C45.027 42.5627 45.0098 42.2001 45.1651 41.9238C45.3205 41.6648 45.4414 41.3886 45.5623 41.1123C45.6831 40.8361 45.7694 40.5426 45.8558 40.2663C45.9594 39.9211 46.2529 39.6966 46.5981 39.6793L48.2901 39.524L48.3074 39.455ZM49.9476 39.265C49.913 39.6448 49.8613 40.0075 49.7749 40.37C49.7059 40.7153 49.4124 40.9742 49.067 41.0088L47.2543 41.1815C47.2024 41.3541 47.1334 41.5095 47.0643 41.6821L46.8399 42.1656L47.9621 43.5295C48.221 43.7885 48.2556 44.2028 48.0484 44.5308C47.634 45.1525 47.1679 45.7222 46.6499 46.2401C46.1148 46.7753 45.545 47.2588 44.9234 47.6732C44.6299 47.8631 44.25 47.8631 43.9565 47.6213L42.5408 46.4473C42.3854 46.5163 42.23 46.5855 42.0574 46.6545C41.902 46.7236 41.7294 46.7926 41.5568 46.8445L41.4013 48.6055C41.384 48.9681 41.125 49.2961 40.7625 49.3651C40.3999 49.4342 40.0374 49.5032 39.6575 49.5378C39.2776 49.5723 38.8979 49.5896 38.5353 49.5896H38.3626C38.0346 49.5896 37.6893 49.5723 37.344 49.5378C36.9986 49.5032 36.6534 49.4515 36.3254 49.3825C35.98 49.3133 35.721 49.0198 35.6865 48.6746L35.5139 46.8617C35.3413 46.8098 35.1859 46.7408 35.0131 46.6717C34.8578 46.6027 34.6851 46.5336 34.5298 46.4646L33.114 47.6386C32.8378 47.8631 32.4579 47.8803 32.1471 47.6905C31.5256 47.2761 30.9559 46.7926 30.4379 46.2747C29.9373 45.774 29.4538 45.2042 29.0394 44.5827C28.8323 44.2892 28.8323 43.8921 29.074 43.5986L30.248 42.2001C30.0926 41.8721 29.9718 41.5612 29.8509 41.2332L28.0726 41.0606C27.71 41.0433 27.382 40.7843 27.3129 40.4045C27.2439 40.0592 27.192 39.6966 27.1575 39.2996C27.123 38.9197 27.1058 38.5398 27.1058 38.1773C27.1058 37.832 27.123 37.4522 27.1575 37.0723C27.192 36.6925 27.2439 36.33 27.3129 35.9846C27.382 35.6393 27.6583 35.3631 28.0208 35.3286L29.8509 35.1558C29.9026 34.9832 29.9718 34.8278 30.0408 34.6725C30.1099 34.4998 30.1789 34.3445 30.2653 34.1891L29.0913 32.7733C28.8668 32.4971 28.8323 32.1 29.0394 31.8065C29.2466 31.513 29.471 31.2022 29.7128 30.9086C29.9545 30.6325 30.1963 30.3562 30.4551 30.0972C30.7314 29.821 31.0076 29.562 31.2839 29.3375C31.5429 29.1131 31.8364 28.9058 32.1299 28.6987C32.4234 28.4742 32.8378 28.4742 33.1313 28.716L34.547 29.89C34.7024 29.8037 34.8578 29.7346 35.0131 29.6656C35.1859 29.5965 35.3413 29.5275 35.5139 29.4756L35.6693 27.7146C35.6865 27.352 35.9455 27.024 36.3081 26.955C36.6534 26.8858 37.0333 26.8168 37.3958 26.7822C37.7756 26.7477 38.1555 26.7305 38.518 26.7305C38.8806 26.7305 39.2604 26.7477 39.6403 26.7822C40.0201 26.8168 40.3826 26.8686 40.728 26.955C41.0733 27.024 41.3323 27.3175 41.3668 27.6628L41.5394 29.4756L42.0401 29.6656C42.1955 29.7346 42.3681 29.8037 42.5235 29.89L43.9393 28.716C44.2155 28.4915 44.6126 28.457 44.9061 28.6642C45.1996 28.8713 45.4931 29.0958 45.7866 29.3202L45.8385 29.3548C46.132 29.5965 46.4083 29.8555 46.6845 30.1317C46.9261 30.3907 47.1679 30.6497 47.3924 30.926C47.6168 31.2195 47.8413 31.4957 48.0311 31.7892C48.221 32.0827 48.221 32.4625 47.9794 32.756L46.8226 34.1717L47.047 34.6552C47.1161 34.8106 47.1851 34.9832 47.237 35.1558L48.998 35.3286C49.3605 35.3458 49.6714 35.6048 49.7576 35.9673C49.8268 36.3127 49.8785 36.6925 49.9303 37.0551C49.9649 37.4348 49.9821 37.8147 49.9821 38.1773C49.9821 38.5398 49.9649 38.9197 49.9303 39.2996L49.9476 39.265ZM32.1126 18.3051C32.0609 18.823 31.9745 19.341 31.8709 19.8417C31.8019 20.187 31.5084 20.446 31.163 20.4805L28.3315 20.7395C28.228 21.0502 28.1244 21.3437 28.0035 21.6372C27.8826 21.948 27.7445 22.2415 27.6064 22.5177L29.3848 24.676C29.6438 24.9348 29.6783 25.3492 29.471 25.6773C28.9013 26.5406 28.228 27.352 27.5029 28.0772C26.7604 28.8196 25.9318 29.493 25.0684 30.08C24.7749 30.2698 24.3951 30.2698 24.1016 30.0281L21.8916 28.198C21.6154 28.3361 21.3219 28.4742 21.0284 28.5951C20.7349 28.716 20.4241 28.8368 20.1134 28.9405L19.8544 31.7201C19.8371 32.0827 19.5781 32.4107 19.2155 32.4798C18.7149 32.5833 18.1969 32.6697 17.6789 32.7215C17.1438 32.7733 16.6085 32.8078 16.0905 32.8078L15.8143 32.7906C15.3481 32.7906 14.882 32.756 14.3985 32.7042C13.9151 32.6525 13.4316 32.5833 12.9655 32.4798C12.6203 32.4107 12.3613 32.1172 12.3267 31.772L12.0677 28.9405C11.757 28.8368 11.4462 28.716 11.1354 28.5951C10.8419 28.4742 10.5657 28.3533 10.2894 28.2153L8.07948 30.0281C7.80325 30.2526 7.42341 30.2698 7.11263 30.08C6.26663 29.5102 5.47245 28.8541 4.74731 28.129L4.69551 28.0945C3.97037 27.3693 3.3143 26.5751 2.71001 25.6946C2.50282 25.4011 2.50282 25.004 2.74455 24.7105L4.57465 22.5177L4.4538 22.2933C4.35021 22.0516 4.22935 21.8272 4.14302 21.5855L4.12576 21.5336C4.03943 21.3437 3.97037 21.1366 3.88405 20.8948L3.83225 20.7567L1.03529 20.4977C0.672716 20.4805 0.344678 20.2215 0.275618 19.8417C0.172026 19.341 0.102965 18.823 0.0511696 18.2878C-0.000625908 17.7526 -0.0351562 17.2173 -0.0351562 16.7167C-0.0351562 16.216 -0.000625908 15.698 0.0511696 15.1628C0.102965 14.6276 0.172026 14.1096 0.275618 13.6262C0.344678 13.2808 0.620921 13.0046 0.98349 12.9701L3.83225 12.6938C3.93583 12.3831 4.03943 12.0896 4.16028 11.7961C4.28115 11.5026 4.41926 11.1918 4.57465 10.9155L2.77907 8.75739C2.5201 8.48115 2.48556 8.06679 2.69275 7.75602C2.98626 7.32438 3.29702 6.91002 3.64233 6.49565C3.97037 6.09855 4.31567 5.71872 4.67825 5.35615C5.05807 4.97632 5.45517 4.61375 5.85227 4.2857C6.23211 3.97494 6.62921 3.68143 7.04357 3.38792C7.33708 3.16347 7.75145 3.16347 8.04496 3.40518L10.2549 5.23529C10.5484 5.0799 10.8419 4.94179 11.1182 4.82093C11.4117 4.70008 11.7052 4.57922 12.0159 4.47563L12.2749 1.69593C12.2922 1.33337 12.5511 1.00532 12.9138 0.936262C13.9324 0.72908 14.9683 0.625488 16.0388 0.625488C16.5568 0.625488 17.0919 0.66002 17.6271 0.711815C18.1451 0.76361 18.663 0.849936 19.1638 0.953527C19.509 1.02259 19.768 1.31609 19.8025 1.6614L20.0615 4.49289C20.3378 4.57922 20.6313 4.70008 20.9075 4.80367L20.9766 4.82093C21.2701 4.94179 21.5464 5.0799 21.8399 5.23529L23.998 3.43972C24.2743 3.18074 24.6886 3.1462 24.9994 3.35339C25.4483 3.64689 25.8799 3.9922 26.2943 4.3375C26.7086 4.6828 27.1058 5.04538 27.4855 5.42522C27.8309 5.78778 28.1761 6.15035 28.4869 6.54745C28.7978 6.94455 29.1085 7.34165 29.3848 7.75602C29.5746 8.04952 29.5746 8.42936 29.3329 8.72287L27.5201 10.9155C27.6755 11.2091 27.7964 11.4853 27.9345 11.7961C28.0553 12.0896 28.1761 12.4004 28.2798 12.7111L31.0768 12.9873C31.422 13.0046 31.7328 13.2636 31.8019 13.6262C31.9055 14.1268 31.9918 14.6448 32.0436 15.1628C32.0954 15.698 32.1299 16.216 32.1299 16.734C32.1299 17.2518 32.0954 17.7871 32.0436 18.3223L32.1126 18.3051Z" fill="#091638"/>
<path fill-rule="evenodd" clip-rule="evenodd" d="M42.403 38.1427C42.403 37.0724 41.9714 36.1227 41.2809 35.4149C40.5902 34.7243 39.6234 34.2926 38.5529 34.2926C37.4825 34.2926 36.5329 34.7243 35.825 35.4149C35.1344 36.1055 34.7027 37.0724 34.7027 38.1427C34.7027 39.2132 35.1344 40.1629 35.825 40.8708L35.8595 40.9053C36.5501 41.5786 37.4997 41.993 38.5356 41.993C39.6061 41.993 40.5556 41.5612 41.2635 40.8708L41.2981 40.8361C41.9714 40.1456 42.3857 39.196 42.3857 38.1601L42.403 38.1427ZM42.4204 34.2754C43.4045 35.2595 44.026 36.6235 44.026 38.1427C44.026 39.6276 43.439 40.9743 42.4721 41.9584L42.4204 42.0103C41.4362 42.9944 40.0722 43.6159 38.5529 43.6159C37.0681 43.6159 35.7214 43.0289 34.7374 42.062L34.6855 42.0103C33.7014 41.0261 33.0799 39.6621 33.0799 38.1427C33.0799 36.6407 33.6841 35.2768 34.6855 34.2926C35.6696 33.3085 37.0336 32.687 38.5529 32.687C40.055 32.687 41.419 33.2913 42.4204 34.2926V34.2754ZM22.5999 16.734C22.5999 14.9384 21.8747 13.3155 20.7007 12.1414L20.6661 12.1069C19.4921 10.9501 17.8865 10.2423 16.1081 10.2423C14.3126 10.2423 12.6896 10.9674 11.5156 12.1414C10.3416 13.3155 9.61644 14.9384 9.61644 16.734C9.61644 18.5295 10.3416 20.1525 11.5156 21.3265C12.6896 22.5005 14.3299 23.2256 16.1254 23.2256C17.921 23.2256 19.544 22.5005 20.718 21.3265L20.7525 21.292C21.9092 20.118 22.6171 18.5123 22.6171 16.734H22.5999ZM21.8402 10.9846C23.3077 12.4522 24.2227 14.4895 24.2227 16.734C24.2227 18.9439 23.325 20.9639 21.892 22.4315L21.8402 22.4833C20.3726 23.9508 18.3354 24.8659 16.0909 24.8659C13.8464 24.8659 11.8264 23.9508 10.3416 22.4833C8.87403 21.0158 7.95898 18.9784 7.95898 16.734C7.95898 14.4895 8.87403 12.4695 10.3416 10.9846C11.8091 9.51711 13.8464 8.60205 16.0909 8.60205C18.3009 8.60205 20.3209 9.49985 21.7884 10.9328L21.8402 10.9846Z" fill="url(#paint0_linear_783_6203)"/>
</g>
</g>
<defs>
<linearGradient id="paint0_linear_783_6203" x1="7.95898" y1="26.109" x2="44.026" y2="26.109" gradientUnits="userSpaceOnUse">
<stop stop-color="#393185"/>
<stop offset="1" stop-color="#E4097F"/>
</linearGradient>
<clipPath id="clip0_783_6203">
<rect width="50" height="50" fill="white"/>
</clipPath>
</defs>
</svg>
