<svg width="43" height="50" viewBox="0 0 43 50" fill="none" xmlns="http://www.w3.org/2000/svg">
<g clip-path="url(#clip0_783_5790)">
<mask id="mask0_783_5790" style="mask-type:luminance" maskUnits="userSpaceOnUse" x="0" y="0" width="43" height="50">
<path d="M42.5532 0H0V49.3604H42.5532V0Z" fill="white"/>
</mask>
<g mask="url(#mask0_783_5790)">
<path fill-rule="evenodd" clip-rule="evenodd" d="M36.7122 16.4073C36.7122 28.6737 21.8816 42.8807 21.847 42.9153C21.5177 43.2272 21.0326 43.2272 20.7208 42.9153C20.6861 42.8807 5.85547 28.6737 5.85547 16.4073C5.85547 11.868 7.58802 7.77918 10.3774 4.81651C13.1669 1.85384 17.0304 0.017334 21.2925 0.017334C25.5546 0.017334 29.4182 1.85384 32.2076 4.81651C34.997 7.77918 36.7295 11.8853 36.7295 16.4073H36.7122ZM21.2752 41.0443C23.926 38.3587 35.0317 26.5254 35.0317 16.4073C35.0317 12.3704 33.4897 8.71475 30.9949 6.06394C28.5 3.41314 25.0694 1.78454 21.2752 1.78454C17.4809 1.78454 14.0332 3.41314 11.5556 6.06394C9.06069 8.71475 7.51872 12.3704 7.51872 16.4073C7.51872 26.5254 18.6244 38.3587 21.2752 41.0443Z" fill="#091638"/>
<path fill-rule="evenodd" clip-rule="evenodd" d="M27.2353 16.4074C27.2353 14.6576 26.5596 13.0636 25.4854 11.9201C24.4113 10.7766 22.9039 10.0663 21.258 10.0663C19.612 10.0663 18.122 10.7766 17.0305 11.9201C15.9564 13.0636 15.2806 14.6576 15.2806 16.4074C15.2806 18.1573 15.9564 19.7513 17.0305 20.8947C18.1048 22.0382 19.612 22.7486 21.258 22.7486C22.9039 22.7486 24.3939 22.0382 25.4854 20.8947C26.5596 19.7513 27.2353 18.1573 27.2353 16.4074ZM26.6808 10.6553C28.0669 12.128 28.9158 14.1551 28.9158 16.4074C28.9158 18.6598 28.0669 20.6868 26.6808 22.1595C25.2949 23.6321 23.389 24.5504 21.2753 24.5504C19.1616 24.5504 17.2557 23.6321 15.8698 22.1768C14.4837 20.7041 13.6348 18.677 13.6348 16.4248C13.6348 14.1724 14.4837 12.1453 15.8698 10.6727C17.2557 9.2 19.1616 8.29907 21.2753 8.29907C23.389 8.29907 25.2949 9.21732 26.6808 10.69V10.6553Z" fill="url(#paint0_linear_783_5790)"/>
<path fill-rule="evenodd" clip-rule="evenodd" d="M15.8355 35.3961C16.3034 35.3614 16.7018 35.7252 16.7365 36.2103C16.7711 36.6954 16.4419 37.1286 15.9741 37.1806C11.6254 37.5791 7.8658 38.3761 5.24964 39.4156C3.01465 40.2992 1.68057 41.3041 1.68057 42.2743C1.68057 43.5391 3.72499 44.8039 7.0515 45.8087C10.6725 46.9176 15.7142 47.5932 21.2757 47.5932C26.8372 47.5932 31.879 46.9176 35.5001 45.8087C38.8092 44.8039 40.8709 43.5391 40.8709 42.2743C40.8709 41.2694 39.5022 40.2473 37.2153 39.3463C34.5991 38.3067 30.8915 37.5445 26.5774 37.1806C26.1095 37.146 25.7631 36.7128 25.7977 36.2277C25.8324 35.7426 26.2308 35.3614 26.6987 35.3961C31.1513 35.7599 35.0322 36.5742 37.8043 37.6658C40.7843 38.8439 42.5516 40.4378 42.5516 42.2569C42.5516 44.4227 40.0393 46.2765 35.9678 47.5066C32.1908 48.6501 27.0105 49.3604 21.2757 49.3604C15.5584 49.3604 10.3607 48.6501 6.5837 47.5066C2.5122 46.2765 0 44.4227 0 42.2569C0 40.4378 1.73255 38.8959 4.66057 37.735C7.43266 36.6435 11.3309 35.8119 15.8183 35.3961H15.8355Z" fill="#091638"/>
</g>
</g>
<defs>
<linearGradient id="paint0_linear_783_5790" x1="13.6348" y1="16.4247" x2="28.9158" y2="16.4247" gradientUnits="userSpaceOnUse">
<stop stop-color="#393185"/>
<stop offset="1" stop-color="#E4097F"/>
</linearGradient>
<clipPath id="clip0_783_5790">
<rect width="42.5532" height="50" fill="white"/>
</clipPath>
</defs>
</svg>
