<svg width="40" height="41" viewBox="0 0 40 41" fill="none" xmlns="http://www.w3.org/2000/svg">
<g clip-path="url(#clip0_783_6179)">
<mask id="mask0_783_6179" style="mask-type:luminance" maskUnits="userSpaceOnUse" x="0" y="0" width="40" height="41">
<path d="M40 0.5H0V40.6569H40V0.5Z" fill="white"/>
</mask>
<g mask="url(#mask0_783_6179)">
<path fill-rule="evenodd" clip-rule="evenodd" d="M6.1966 6.69604V13.52C6.1966 14.0109 6.63111 14.3044 7.13739 14.3044C7.9795 14.3044 10.279 14.4403 10.734 14.1365C10.8583 14.0532 11.0582 13.861 11.0582 13.6777V11.168H16.6274V21.3643C16.6274 22.091 18.1963 22.2769 18.1963 21.2079V10.3067C18.1963 9.86579 17.8528 9.52228 17.4118 9.52228H10.2751C9.85212 9.52228 9.49067 9.87989 9.49067 10.3067V12.66H7.76545V7.5625H32.157V12.66H30.5099V10.3067C30.5099 9.91193 30.119 9.52228 29.7255 9.52228H22.5888C22.1927 9.52228 21.8044 9.80555 21.8044 10.2285V17.9151C21.8044 18.6419 23.3732 18.829 23.3732 17.7587V11.1706H28.8629C28.8629 14.8146 28.3579 14.3083 32.9414 14.3083C33.3516 14.3083 33.804 13.9571 33.804 13.5239V6.85754C33.804 6.21411 33.4169 5.91675 32.7838 5.91675H7.29377C6.69904 5.91675 6.19531 6.11926 6.19531 6.70117L6.1966 6.69604Z" fill="url(#paint0_linear_783_6179)"/>
<path fill-rule="evenodd" clip-rule="evenodd" d="M5.88281 22.6177V25.5196C5.88281 26.4091 7.52985 27.0577 7.52985 25.0492H32.1572C32.1572 26.95 33.8043 26.5424 33.8043 25.4414V22.6177C33.8043 21.5756 32.1572 21.4693 32.1572 22.8523V23.4008H7.52985C7.52985 22.7574 7.62983 21.832 6.66724 21.832C6.24042 21.832 5.88281 22.1934 5.88281 22.6164V22.6177Z" fill="url(#paint1_linear_783_6179)"/>
<path fill-rule="evenodd" clip-rule="evenodd" d="M16.3143 27.4013V30.6172C12.9972 30.6172 13.5688 29.9391 13.5688 35.4019C13.5688 35.8351 14.0213 36.1863 14.4314 36.1863H25.4121C25.9786 36.1863 26.4311 35.8723 26.4311 35.3237V31.4016C26.4311 31.2144 26.3388 31.0017 26.2427 30.8838C25.8799 30.4377 24.7353 30.6172 23.6856 30.6172V27.4013C23.6856 26.4541 22.1167 26.4541 22.1167 27.4013V31.4798C22.1167 32.4526 23.5228 32.186 24.7828 32.186V34.5393H15.1364V32.186C16.4438 32.186 17.8819 32.4603 17.8819 31.4798V27.4013C17.8819 26.4541 16.313 26.4541 16.313 27.4013H16.3143Z" fill="url(#paint2_linear_783_6179)"/>
<path fill-rule="evenodd" clip-rule="evenodd" d="M0.00128174 3.40192V10.3823C0.00128174 11.1205 1.0459 11.4038 1.47272 10.7552C1.96876 10.0016 1.32917 4.00562 1.72266 3.00458C1.98029 2.34705 2.53401 2.06378 3.44917 2.06507C4.18617 2.06635 9.79507 2.12274 10.0873 2.03687C10.9487 1.78693 10.7615 0.498779 9.88223 0.498779H2.82368C1.37018 0.498779 0 1.96509 0 3.40064L0.00128174 3.40192Z" fill="url(#paint3_linear_783_6179)"/>
<path fill-rule="evenodd" clip-rule="evenodd" d="M0.00195312 30.7747V37.7551C0.00195312 38.5292 0.465944 39.3073 0.844057 39.7366C1.20935 40.1494 2.06941 40.6569 2.82562 40.6569H9.88418C10.7622 40.6569 10.9506 39.3688 10.0893 39.1188C9.79702 39.0342 4.18812 39.0906 3.45111 39.0906C2.53467 39.0919 1.98224 38.8087 1.72461 38.1511C1.33111 37.1501 1.9707 31.1554 1.47467 30.4004C1.04785 29.7519 0.00323486 30.0364 0.00323486 30.7734L0.00195312 30.7747Z" fill="url(#paint4_linear_783_6179)"/>
<path fill-rule="evenodd" clip-rule="evenodd" d="M29.334 39.8712C29.334 40.2429 29.7172 40.6557 30.1184 40.6557H37.177C38.6074 40.6557 40.0007 39.1868 40.0007 37.7538V30.7734C40.0007 30.0352 38.956 29.7519 38.5292 30.4005C38.0332 31.1541 38.6728 37.1501 38.2793 38.1511C38.0204 38.8087 37.4679 39.0919 36.5528 39.0907C35.8158 39.0894 30.2069 39.033 29.9146 39.1189C29.6391 39.1983 29.3353 39.5598 29.3353 39.8725L29.334 39.8712Z" fill="url(#paint5_linear_783_6179)"/>
<path fill-rule="evenodd" clip-rule="evenodd" d="M29.334 1.28437C29.334 2.29566 30.7362 2.06879 31.2169 2.06879L36.5528 2.06623C37.4679 2.06495 38.0216 2.34821 38.2793 3.00574C38.6728 4.00678 38.0332 10.0014 38.5292 10.7564C38.956 11.405 40.0007 11.1204 40.0007 10.3834V3.40308C40.0007 1.97266 38.6343 0.501221 37.177 0.501221H30.1184C29.7172 0.501221 29.334 0.913941 29.334 1.28565V1.28437Z" fill="url(#paint6_linear_783_6179)"/>
<path fill-rule="evenodd" clip-rule="evenodd" d="M21.8047 20.9706C21.8047 21.4576 21.9201 21.9896 22.5891 21.9896C23.6068 21.9896 23.6068 20.3425 22.5891 20.3425C22.2879 20.3425 21.8047 20.6783 21.8047 20.9706Z" fill="url(#paint7_linear_783_6179)"/>
</g>
</g>
<defs>
<linearGradient id="paint0_linear_783_6179" x1="6.19531" y1="13.9381" x2="33.804" y2="13.9381" gradientUnits="userSpaceOnUse">
<stop stop-color="#393185"/>
<stop offset="1" stop-color="#E4097F"/>
</linearGradient>
<linearGradient id="paint1_linear_783_6179" x1="5.88281" y1="24.0985" x2="33.8043" y2="24.0985" gradientUnits="userSpaceOnUse">
<stop stop-color="#393185"/>
<stop offset="1" stop-color="#E4097F"/>
</linearGradient>
<linearGradient id="paint2_linear_783_6179" x1="13.5312" y1="31.4386" x2="26.4311" y2="31.4386" gradientUnits="userSpaceOnUse">
<stop stop-color="#393185"/>
<stop offset="1" stop-color="#E4097F"/>
</linearGradient>
<linearGradient id="paint3_linear_783_6179" x1="0" y1="5.80799" x2="10.6457" y2="5.80799" gradientUnits="userSpaceOnUse">
<stop stop-color="#393185"/>
<stop offset="1" stop-color="#E4097F"/>
</linearGradient>
<linearGradient id="paint4_linear_783_6179" x1="0.00195312" y1="35.3479" x2="10.6473" y2="35.3479" gradientUnits="userSpaceOnUse">
<stop stop-color="#393185"/>
<stop offset="1" stop-color="#E4097F"/>
</linearGradient>
<linearGradient id="paint5_linear_783_6179" x1="29.334" y1="35.3471" x2="40.0007" y2="35.3471" gradientUnits="userSpaceOnUse">
<stop stop-color="#393185"/>
<stop offset="1" stop-color="#E4097F"/>
</linearGradient>
<linearGradient id="paint6_linear_783_6179" x1="30.3209" y1="2.46485" x2="38.569" y2="4.10548" gradientUnits="userSpaceOnUse">
<stop stop-color="#3E4095"/>
<stop offset="1" stop-color="#EC268F"/>
</linearGradient>
<linearGradient id="paint7_linear_783_6179" x1="21.8047" y1="21.166" x2="23.3524" y2="21.166" gradientUnits="userSpaceOnUse">
<stop stop-color="#393185"/>
<stop offset="1" stop-color="#E4097F"/>
</linearGradient>
<clipPath id="clip0_783_6179">
<rect width="40" height="41" fill="white"/>
</clipPath>
</defs>
</svg>
