<svg width="50" height="50" viewBox="0 0 50 50" fill="none" xmlns="http://www.w3.org/2000/svg">
<path d="M31.666 36.6667H18.3327C17.4122 36.6667 16.666 37.4129 16.666 38.3334V40.0001C16.666 40.9206 17.4122 41.6667 18.3327 41.6667H31.666C32.5865 41.6667 33.3327 40.9206 33.3327 40.0001V38.3334C33.3327 37.4129 32.5865 36.6667 31.666 36.6667Z" stroke="#091638" stroke-width="2" stroke-linecap="round" stroke-linejoin="round"/>
<path d="M30 41.6668V45.0001C30 45.8841 29.6488 46.732 29.0237 47.3571C28.3986 47.9822 27.5507 48.3334 26.6667 48.3334H23.3333C22.4493 48.3334 21.6014 47.9822 20.9763 47.3571C20.3512 46.732 20 45.8841 20 45.0001V41.6668M11.6667 21.6667C11.6667 18.1305 13.0714 14.7391 15.5719 12.2387C18.0724 9.73817 21.4638 8.33342 25 8.33342V13.4867C24.7331 13.388 24.4512 13.3361 24.1667 13.3334C23.5036 13.3334 22.8677 13.5968 22.3989 14.0656C21.9301 14.5345 21.6667 15.1704 21.6667 15.8334C21.6667 16.4965 21.9301 17.1323 22.3989 17.6012C22.8677 18.07 23.5036 18.3334 24.1667 18.3334C24.4512 18.3307 24.7331 18.2788 25 18.1801V21.6667M11.6667 21.6667H16.82C16.7212 21.9336 16.6694 22.2155 16.6667 22.5001C16.6667 23.1631 16.9301 23.799 17.3989 24.2678C17.8677 24.7367 18.5036 25.0001 19.1667 25.0001C19.8297 25.0001 20.4656 24.7367 20.9344 24.2678C21.4033 23.799 21.6667 23.1631 21.6667 22.5001C21.664 22.2155 21.6121 21.9336 21.5133 21.6667H25M11.6667 21.6667C11.6677 24.3218 12.4614 26.916 13.9461 29.1172C15.4307 31.3183 17.5387 33.0261 20 34.0218V36.6667M25 21.6667H28.4867C28.3879 21.3999 28.336 21.118 28.3333 20.8334C28.3333 20.1704 28.5967 19.5345 29.0656 19.0656C29.5344 18.5968 30.1703 18.3334 30.8333 18.3334C31.4964 18.3334 32.1323 18.5968 32.6011 19.0656C33.0699 19.5345 33.3333 20.1704 33.3333 20.8334C33.3306 21.118 33.2788 21.3999 33.18 21.6667H38.3333C38.3323 24.3218 37.5386 26.916 36.0539 29.1172C34.5693 31.3183 32.4613 33.0261 30 34.0218V36.6667M25 21.6667V25.1534C25.2669 25.0547 25.5488 25.0028 25.8333 25.0001C26.4964 25.0001 27.1323 25.2635 27.6011 25.7323C28.0699 26.2012 28.3333 26.837 28.3333 27.5001C28.3333 28.1631 28.0699 28.799 27.6011 29.2678C27.1323 29.7367 26.4964 30.0001 25.8333 30.0001C25.5488 29.9974 25.2669 29.9455 25 29.8468V36.6667M25 1.66675V5.00008M15 4.34591L16.6667 7.23258M7.67917 11.6667L10.5658 13.3334M5 21.6667H8.33333M7.67917 31.6667L10.5658 30.0001M42.3208 31.6667L39.4342 30.0001M45 21.6667H41.6667M23.3333 41.6668V45.0001M26.6667 41.6668V45.0001" stroke="#091638" stroke-width="2" stroke-linecap="round" stroke-linejoin="round"/>
<path d="M35.154 15.0001C35.0552 14.7332 35.0033 14.4513 35.0007 14.1667C35.0007 13.5037 35.264 12.8678 35.7329 12.399C36.2017 11.9301 36.8376 11.6667 37.5007 11.6667C38.1637 11.6667 38.7996 11.9301 39.2684 12.399C39.7373 12.8678 40.0007 13.5037 40.0007 14.1667C39.998 14.4513 39.9461 14.7332 39.8473 15.0001H45.0007C45.0007 11.4639 43.5959 8.07248 41.0954 5.57199C38.5949 3.07151 35.2035 1.66675 31.6673 1.66675V6.82008C31.4005 6.72132 31.1185 6.66944 30.834 6.66675C30.1709 6.66675 29.5351 6.93014 29.0662 7.39898C28.5974 7.86782 28.334 8.50371 28.334 9.16675C28.334 9.82979 28.5974 10.4657 29.0662 10.9345C29.5351 11.4034 30.1709 11.6667 30.834 11.6667C31.1185 11.6641 31.4005 11.6122 31.6673 11.5134V15.0001H35.154Z" stroke="url(#paint0_linear_781_4307)" stroke-width="2" stroke-linecap="round" stroke-linejoin="round"/>
<defs>
<linearGradient id="paint0_linear_781_4307" x1="28.334" y1="8.33341" x2="45.0007" y2="8.33341" gradientUnits="userSpaceOnUse">
<stop stop-color="#393185"/>
<stop offset="1" stop-color="#E4097F"/>
</linearGradient>
</defs>
</svg>
