<svg width="50" height="58" viewBox="0 0 50 58" fill="none" xmlns="http://www.w3.org/2000/svg">
<g clip-path="url(#clip0_781_4441)">
<path fill-rule="evenodd" clip-rule="evenodd" d="M32.28 39.9879H33.4928V32.337H32.28V39.9879ZM35.7726 39.9879H36.9854V32.9753H35.7726V39.9879ZM39.2652 39.9879H40.478V30.5861H39.2652V39.9879ZM28.6506 39.9879H29.8634V33.4495H28.6506V39.9879ZM25.0212 39.9879H26.234V32.337H25.0212V39.9879ZM21.3918 39.9879H22.6046V35.0454H21.3918V39.9879ZM42.7578 39.9879H43.9706V27.8504H42.7578V39.9879ZM22.0027 30.9144C22.1395 30.9144 22.2763 30.8688 22.3857 30.7867L25.7872 28.1422L29.0062 29.5739C29.0883 29.6104 29.1795 29.6286 29.2615 29.6286C29.3618 29.6286 29.453 29.6104 29.5442 29.5648L32.8909 27.8778L36.1009 29.4827C36.192 29.5283 36.2832 29.5465 36.3835 29.5465C36.5295 29.5465 36.6754 29.4918 36.7848 29.4006L40.2865 26.4825L43.7791 23.3912C43.9068 23.2817 43.9798 23.1267 43.9798 22.9626C43.9798 22.6434 43.7062 22.3881 43.3779 22.3881C43.2229 22.3881 43.0678 22.4428 42.9584 22.5522L39.484 25.6253L36.3106 28.2699L33.1919 26.7014C33.1007 26.6558 33.0095 26.6376 32.9092 26.6376C32.8089 26.6376 32.7177 26.6558 32.6265 26.7014L29.2615 28.3975L25.9695 26.9385C25.8875 26.902 25.8054 26.8838 25.7142 26.8838C25.5774 26.8838 25.4406 26.9294 25.3312 27.0114L21.638 29.884C21.5012 29.9934 21.4191 30.1575 21.4191 30.3308C21.4191 30.65 21.6927 30.9053 22.021 30.9053L22.0027 30.9144ZM10.1388 32.264C7.10213 32.264 4.63086 34.6076 4.63086 37.4984C4.63086 38.5471 4.96827 39.5775 5.58836 40.4439C5.69779 40.5989 5.88929 40.6992 6.08991 40.6992H14.1968C14.3974 40.6992 14.5889 40.608 14.6983 40.4439C15.3184 39.5775 15.6558 38.5471 15.6558 37.4984C15.6558 34.6076 13.1937 32.264 10.1479 32.264H10.1388ZM13.8594 39.5411H11.0963L12.5006 36.7233C12.5371 36.6412 12.5554 36.5591 12.5554 36.4771C12.5554 36.1579 12.2818 35.9025 11.9535 35.9025C11.7164 35.9025 11.5067 36.0302 11.4063 36.2308L9.75579 39.5411H6.4182C6.04432 38.921 5.8437 38.2097 5.8437 37.4984C5.8437 35.246 7.76783 33.413 10.1388 33.413C12.5098 33.413 14.4339 35.2369 14.4339 37.4984C14.4339 38.2188 14.2333 38.921 13.8594 39.5411ZM10.1388 21.5035C7.10213 21.5035 4.63086 23.8471 4.63086 26.7379C4.63086 27.7866 4.96827 28.817 5.58836 29.6833C5.69779 29.8384 5.88929 29.9295 6.08991 29.9295H14.1968C14.3974 29.9295 14.5889 29.8384 14.6983 29.6742C15.3184 28.8079 15.6558 27.7774 15.6558 26.7287C15.6558 23.838 13.1937 21.4944 10.1479 21.4944L10.1388 21.5035ZM13.8594 28.7805H10.5674L9.36367 25.525C9.2816 25.2879 9.05362 25.1238 8.78917 25.1238C8.45176 25.1238 8.18731 25.3791 8.18731 25.6983C8.18731 25.7712 8.19643 25.8351 8.22378 25.8989L9.29072 28.7714H6.42732C6.05344 28.1513 5.85282 27.44 5.85282 26.7287C5.85282 24.4763 7.77695 22.6434 10.1479 22.6434C12.5189 22.6434 14.443 24.4672 14.443 26.7287C14.443 27.4492 14.2424 28.1513 13.8685 28.7714L13.8594 28.7805Z" fill="url(#paint0_linear_781_4441)"/>
<path fill-rule="evenodd" clip-rule="evenodd" d="M5.24348 48.5865C5.48058 48.5865 5.71767 48.4953 5.88182 48.3312C6.05508 48.1671 6.14627 47.9482 6.14627 47.7202C6.14627 47.6017 6.11891 47.4922 6.07332 47.3828C5.93653 47.0637 5.59912 46.8539 5.23436 46.8539C4.99726 46.8539 4.76017 46.9451 4.59602 47.1092C4.51395 47.1913 4.441 47.2825 4.38628 47.3828C4.34981 47.4922 4.33157 47.6017 4.32245 47.7202C4.32245 48.1944 4.73281 48.5865 5.23436 48.5865H5.24348ZM47.6564 17.8278H31.5885C32.2451 16.6879 32.5825 15.4113 32.5825 14.1164C32.5825 9.83039 28.9166 6.34689 24.4027 6.34689C19.8887 6.34689 16.2229 9.82127 16.2229 14.1164C16.2229 15.4113 16.5694 16.6971 17.2169 17.8278H2.35273C1.05781 17.8278 0 18.8309 0 20.062V49.1884C0 50.4195 1.05781 51.4226 2.35273 51.4226H15.4204V56.8393H10.1313C9.79391 56.8393 9.52945 57.0947 9.52945 57.4138C9.52945 57.733 9.80303 57.9883 10.1313 57.9883H39.8596C40.197 57.9883 40.4614 57.733 40.4614 57.4138C40.4614 57.0947 40.1879 56.8393 39.8596 56.8393H33.7589V51.4226H47.6381C48.9422 51.4226 49.9909 50.4195 49.9909 49.1884V20.062C49.9909 18.8309 48.9331 17.8278 47.6381 17.8278H47.6564ZM19.4784 9.43826C20.7824 8.19807 22.5606 7.4959 24.4118 7.4959C28.2601 7.4959 31.3788 10.4596 31.3788 14.1164C31.3788 15.4386 30.9593 16.7335 30.1842 17.8278H18.6394C17.8643 16.7335 17.4539 15.4386 17.4539 14.1255C17.4539 12.3746 18.1835 10.6967 19.4784 9.44738V9.43826ZM32.5643 56.8484H16.6423V51.4317H32.5643V56.8484ZM48.8054 49.1884C48.8054 49.7903 48.2947 50.2736 47.6655 50.2736H2.37096C1.74175 50.2736 1.23108 49.7903 1.23108 49.1884V45.3128H48.8145V49.1884H48.8054ZM48.8054 44.1638H1.22196V20.062C1.22196 19.4601 1.73263 18.9768 2.36185 18.9768H47.6564C48.2856 18.9768 48.7963 19.4601 48.7963 20.062V44.1638H48.8054ZM31.7618 7.73299C31.926 7.73299 32.0719 7.66916 32.1904 7.56885L34.9352 4.96079C35.0447 4.85136 35.1085 4.71457 35.1085 4.55955C35.1085 4.24038 34.8349 3.98505 34.5067 3.98505C34.3516 3.98505 34.1966 4.03976 34.0872 4.14919L31.3332 6.75725C31.2238 6.86668 31.1599 7.01258 31.1599 7.16761C31.1599 7.48678 31.4335 7.74211 31.7618 7.74211V7.73299ZM24.4209 4.84224C24.7583 4.84224 25.0228 4.58691 25.0228 4.26774V0.574503C25.0228 0.255335 24.7492 0 24.4209 0C24.0835 0 23.8191 0.255335 23.8191 0.574503V4.26774C23.8191 4.58691 24.0926 4.84224 24.4209 4.84224ZM34.1966 14.1346C34.1966 14.4538 34.4702 14.7091 34.7985 14.7091H38.6923C39.0297 14.7091 39.2942 14.4538 39.2942 14.1346C39.2942 13.8154 39.0206 13.5601 38.6923 13.5601H34.7985C34.4611 13.5601 34.1966 13.8154 34.1966 14.1346ZM16.6515 7.56885C16.7609 7.66916 16.9159 7.73299 17.0709 7.73299C17.4084 7.73299 17.6728 7.47766 17.6728 7.15849C17.6728 7.01258 17.609 6.86668 17.4995 6.75725L14.7547 4.14919C14.6453 4.04888 14.4902 3.98505 14.3352 3.98505C13.9978 3.98505 13.7334 4.24038 13.7334 4.55955C13.7334 4.70545 13.7972 4.85136 13.9066 4.96079L16.6515 7.56885ZM10.1496 14.7091H14.0343C14.3717 14.7091 14.6361 14.4538 14.6361 14.1346C14.6361 13.8154 14.3626 13.5601 14.0343 13.5601H10.1404C9.80303 13.5601 9.53857 13.8154 9.53857 14.1346C9.53857 14.4538 9.81215 14.7091 10.1404 14.7091H10.1496Z" fill="#171731"/>
</g>
<defs>
<linearGradient id="paint0_linear_781_4441" x1="4.63086" y1="31.0968" x2="43.9798" y2="31.0968" gradientUnits="userSpaceOnUse">
<stop stop-color="#393185"/>
<stop offset="1" stop-color="#E4097F"/>
</linearGradient>
<clipPath id="clip0_781_4441">
<rect width="50" height="57.9992" fill="white"/>
</clipPath>
</defs>
</svg>
