<svg width="50" height="35" viewBox="0 0 50 35" fill="none" xmlns="http://www.w3.org/2000/svg">
<g clip-path="url(#clip0_783_5909)">
<path fill-rule="evenodd" clip-rule="evenodd" d="M13.7075 28.5079L13.0488 27.8494C7.3483 22.1487 7.3483 12.7191 13.0488 7.01856L13.7075 6.14185L15.2426 7.67707L14.5841 8.33558C9.76024 13.3776 9.76024 21.272 14.5841 26.318L15.2426 26.9765L13.7075 28.5117V28.5079Z" fill="#091638"/>
<path fill-rule="evenodd" clip-rule="evenodd" d="M19.4075 22.8073L18.749 22.1488C17.432 20.8318 16.7773 19.2966 16.7773 17.3249C16.7773 15.5714 17.4358 13.8181 18.749 12.5011L19.4075 11.8425L20.9427 13.3777L20.2842 14.0363C19.1893 14.9129 18.749 16.2299 18.749 17.3249C18.749 18.6419 19.1893 19.7368 20.066 20.6136L20.9427 21.4903L19.4075 22.8073Z" fill="url(#paint0_linear_783_5909)"/>
<path fill-rule="evenodd" clip-rule="evenodd" d="M7.56702 34.6488L6.90851 33.9903C-2.30284 24.7789 -2.30284 9.867 6.90851 0.877748L7.56702 0.219238L9.10225 1.75446L8.44374 2.19477C0.109103 10.5294 0.109103 24.1243 8.44374 32.4589L9.10225 33.1174L7.56702 34.6527V34.6488ZM30.5915 22.8073L29.0563 21.2721L29.7147 20.6136C30.5915 19.7368 31.0317 18.6419 31.0317 17.3249C31.0317 16.0079 30.5915 14.9129 29.7147 14.0362L29.0563 13.3777L30.5915 11.8425L31.25 12.5011C32.567 13.8181 33.2216 15.3533 33.2216 17.3249C33.2216 19.0783 32.5631 20.8318 31.25 22.1488L30.5915 22.8073ZM36.2921 28.5079L34.7569 26.9727L35.4154 26.3142C40.2393 21.2721 40.2393 13.3777 35.4154 8.33177L34.7569 7.67326L36.2921 6.13804L36.9506 6.79655C42.6512 12.4971 42.6512 21.9267 36.9506 27.6273L36.2921 28.5039V28.5079Z" fill="#091638"/>
<path fill-rule="evenodd" clip-rule="evenodd" d="M30.5919 22.8073L29.0566 21.2721L29.7151 20.6136C30.5919 19.7368 31.0321 18.642 31.0321 17.325C31.0321 16.008 30.5919 14.913 29.7151 14.0362L29.0566 13.3777L30.5919 11.8425L31.2504 12.5011C32.5674 13.8181 33.222 15.3533 33.222 17.325C33.222 19.0783 32.5635 20.8318 31.2504 22.1488L30.5919 22.8073Z" fill="url(#paint1_linear_783_5909)"/>
<path fill-rule="evenodd" clip-rule="evenodd" d="M42.4337 34.6487L40.8984 33.1135L41.5569 32.455C49.8916 24.1204 49.8916 10.5254 41.5569 2.19081L40.8984 1.5323L42.4337 -0.00292969L43.0922 0.655581C52.3036 9.86692 52.3036 24.7789 43.0922 33.7681L42.4337 34.6449V34.6487Z" fill="#091638"/>
<path fill-rule="evenodd" clip-rule="evenodd" d="M27.3027 18.4199H22.9191C22.2606 18.4199 21.8242 17.9796 21.8242 17.325C21.8242 16.6665 22.2606 16.23 22.9191 16.23H27.3027C27.9612 16.23 28.3976 16.6704 28.3976 17.325C28.1793 17.9835 27.7391 18.4199 27.3027 18.4199Z" fill="url(#paint2_linear_783_5909)"/>
</g>
<defs>
<linearGradient id="paint0_linear_783_5909" x1="16.7773" y1="17.3249" x2="20.9427" y2="17.3249" gradientUnits="userSpaceOnUse">
<stop stop-color="#393185"/>
<stop offset="1" stop-color="#E4097F"/>
</linearGradient>
<linearGradient id="paint1_linear_783_5909" x1="29.0566" y1="17.3249" x2="33.222" y2="17.3249" gradientUnits="userSpaceOnUse">
<stop stop-color="#393185"/>
<stop offset="1" stop-color="#E4097F"/>
</linearGradient>
<linearGradient id="paint2_linear_783_5909" x1="21.8242" y1="17.3249" x2="28.3976" y2="17.3249" gradientUnits="userSpaceOnUse">
<stop stop-color="#393185"/>
<stop offset="1" stop-color="#E4097F"/>
</linearGradient>
<clipPath id="clip0_783_5909">
<rect width="50" height="35" fill="white"/>
</clipPath>
</defs>
</svg>
