<svg width="50" height="50" viewBox="0 0 50 50" fill="none" xmlns="http://www.w3.org/2000/svg">
<path d="M29.2539 37.0477H6.82422C3.19912 37.0477 0.25 34.084 0.25 30.4409V10.2318C0.25 6.58874 3.19912 3.625 6.82422 3.625H43.1758C46.8009 3.625 49.75 6.58874 49.75 10.2318V16.8386C49.75 17.2677 49.4035 17.6159 48.9766 17.6159C48.5496 17.6159 48.2031 17.2677 48.2031 16.8386V10.2318C48.2031 7.44607 45.9478 5.17955 43.1758 5.17955H6.82422C4.05222 5.17955 1.79688 7.44607 1.79688 10.2318V30.4409C1.79688 33.2267 4.05222 35.4932 6.82422 35.4932H29.2539C29.6808 35.4932 30.0273 35.8414 30.0273 36.2705C30.0273 36.6995 29.6808 37.0477 29.2539 37.0477ZM30.1434 46.375H19.0832C18.0708 46.375 17.1318 45.8694 16.5711 45.0229C16.0115 44.1776 15.9106 43.114 16.3008 42.1773L17.7467 38.692C17.9111 38.296 18.3639 38.1079 18.7584 38.2739C19.1528 38.439 19.3388 38.8941 19.1749 39.2902L17.7285 42.7766C17.5352 43.2403 17.5831 43.7447 17.8592 44.1621C18.1361 44.5803 18.5824 44.8205 19.0832 44.8205H30.1434C30.5703 44.8205 30.9168 45.1687 30.9168 45.5977C30.9168 46.0268 30.5703 46.375 30.1434 46.375Z" fill="#091638"/>
<path d="M45.8913 46.375H35.8587C33.731 46.375 32 44.6287 32 42.4821V33.1393C32 32.7095 32.3457 32.3607 32.7717 32.3607C33.1977 32.3607 33.5435 32.7095 33.5435 33.1393V42.4821C33.5435 43.7703 34.5819 44.8179 35.8587 44.8179H45.8913C47.1681 44.8179 48.2065 43.7703 48.2065 42.4821V23.0179C48.2065 21.7297 47.1681 20.6821 45.8913 20.6821H35.087C34.661 20.6821 34.3152 20.3333 34.3152 19.9036C34.3152 19.4738 34.661 19.125 35.087 19.125H45.8913C48.019 19.125 49.75 20.8713 49.75 23.0179V42.4821C49.75 44.6283 48.0186 46.375 45.8913 46.375Z" fill="#091638"/>
<path d="M25.8082 33.6635C21.5028 33.6635 18 30.1782 18 25.8942C18 21.6103 21.5028 18.125 25.8082 18.125C30.1137 18.125 33.6164 21.6103 33.6164 25.8942C33.6164 30.1782 30.1137 33.6635 25.8082 33.6635ZM25.8082 19.6788C22.364 19.6788 19.5616 22.4672 19.5616 25.8942C19.5616 29.3212 22.3636 32.1096 25.8082 32.1096C29.2528 32.1096 32.0548 29.3212 32.0548 25.8942C32.0548 22.4672 29.2524 19.6788 25.8082 19.6788Z" fill="url(#paint0_linear_781_5719)"/>
<path d="M45.719 43.3749H36.3492C35.9182 43.3749 35.5684 43.0268 35.5684 42.598C35.5684 42.1691 35.9182 41.821 36.3492 41.821H45.719C46.1501 41.821 46.4999 42.1691 46.4999 42.598C46.4999 43.0268 46.1501 43.3749 45.719 43.3749Z" fill="#091638"/>
<path d="M24.9043 29.0217C24.6991 29.0217 24.502 28.9414 24.3567 28.7988L22.2268 26.7064C21.9244 26.4092 21.9244 25.9276 22.2268 25.6305C22.5289 25.3334 23.0199 25.3334 23.322 25.6305L24.9043 27.1849L28.8098 23.3478C29.1123 23.0507 29.6025 23.0507 29.905 23.3478C30.2074 23.645 30.2074 24.1266 29.905 24.4237L25.4515 28.7988C25.3067 28.9414 25.1096 29.0217 24.9043 29.0217ZM40.9755 31.875C40.548 31.875 40.201 31.5341 40.201 31.1141V27.6902C40.201 27.0609 39.6797 26.5489 39.0392 26.5489H32.8431C32.4156 26.5489 32.0686 26.208 32.0686 25.788C32.0686 25.368 32.4156 25.0271 32.8431 25.0271H39.0392C40.5336 25.0271 41.75 26.2221 41.75 27.6902V31.1141C41.75 31.5341 41.403 31.875 40.9755 31.875Z" fill="url(#paint1_linear_781_5719)"/>
<path d="M40.8864 36.625C39.1696 36.625 37.7727 35.2383 37.7727 33.5341C37.7727 31.8298 39.1696 30.4432 40.8864 30.4432C42.6031 30.4432 44 31.8298 44 33.5341C44 35.2383 42.6031 36.625 40.8864 36.625ZM40.8864 31.9886C40.0278 31.9886 39.3295 32.6818 39.3295 33.5341C39.3295 34.3864 40.0278 35.0795 40.8864 35.0795C41.7449 35.0795 42.4432 34.3864 42.4432 33.5341C42.4432 32.6818 41.7449 31.9886 40.8864 31.9886ZM18.7017 26.5795H12.4744C10.9721 26.5795 9.75 25.366 9.75 23.875V20.3977C9.75 19.9712 10.0987 19.625 10.5284 19.625C10.9581 19.625 11.3068 19.9712 11.3068 20.3977V23.875C11.3068 24.514 11.8307 25.0341 12.4744 25.0341H18.7017C19.1314 25.0341 19.4801 25.3803 19.4801 25.8068C19.4801 26.2334 19.1318 26.5795 18.7017 26.5795Z" fill="url(#paint2_linear_781_5719)"/>
<path d="M10.625 21.125C8.90195 21.125 7.5 19.723 7.5 18C7.5 16.277 8.90195 14.875 10.625 14.875C12.348 14.875 13.75 16.277 13.75 18C13.75 19.723 12.348 21.125 10.625 21.125ZM10.625 16.4375C9.76328 16.4375 9.0625 17.1383 9.0625 18C9.0625 18.8617 9.76328 19.5625 10.625 19.5625C11.4867 19.5625 12.1875 18.8617 12.1875 18C12.1875 17.1383 11.4867 16.4375 10.625 16.4375Z" fill="url(#paint3_linear_781_5719)"/>
<defs>
<linearGradient id="paint0_linear_781_5719" x1="18" y1="25.8942" x2="33.6164" y2="25.8942" gradientUnits="userSpaceOnUse">
<stop stop-color="#393185"/>
<stop offset="1" stop-color="#E4097F"/>
</linearGradient>
<linearGradient id="paint1_linear_781_5719" x1="22" y1="27.5" x2="41.75" y2="27.5" gradientUnits="userSpaceOnUse">
<stop stop-color="#393185"/>
<stop offset="1" stop-color="#E4097F"/>
</linearGradient>
<linearGradient id="paint2_linear_781_5719" x1="9.75" y1="28.125" x2="44" y2="28.125" gradientUnits="userSpaceOnUse">
<stop stop-color="#393185"/>
<stop offset="1" stop-color="#E4097F"/>
</linearGradient>
<linearGradient id="paint3_linear_781_5719" x1="7.5" y1="18" x2="13.75" y2="18" gradientUnits="userSpaceOnUse">
<stop stop-color="#393185"/>
<stop offset="1" stop-color="#E4097F"/>
</linearGradient>
</defs>
</svg>
